<?xml version="1.0" encoding="UTF-8" standalone="no"?>
<!DOCTYPE svg PUBLIC "-//W3C//DTD SVG 1.1//EN"
 "http://www.w3.org/Graphics/SVG/1.1/DTD/svg11.dtd">
<!-- Generated by graphviz version 2.43.0 (0)
 -->
<!-- Title: main_graph Pages: 1 -->
<svg width="708pt" height="1230pt"
 viewBox="0.00 0.00 707.50 1230.00" xmlns="http://www.w3.org/2000/svg" xmlns:xlink="http://www.w3.org/1999/xlink">
<g id="graph0" class="graph" transform="scale(1 1) rotate(0) translate(4 1226)">
<title>main_graph</title>
<polygon fill="white" stroke="transparent" points="-4,4 -4,-1226 703.5,-1226 703.5,4 -4,4"/>
<!-- MatMul (op#0) -->
<g id="node1" class="node">
<title>MatMul (op#0)</title>
<g id="a_node1"><a xlink:href="javascript:alert('Inputs:\n\tinput0 onnx::MatMul_0\n\tinput1 onnx::MatMul_106\nOutputs: \n\toutput0 /attention/self/query/MatMul_output_0\nDuration: 7 \u00b5s\nMax theoritical speedup: 1.079')" xlink:title="MatMul (op#0)">
<polygon fill="#ffee00" stroke="darkred" stroke-width="3" points="259.5,-1149 133.5,-1149 133.5,-1113 259.5,-1113 259.5,-1149"/>
<text text-anchor="middle" x="196.5" y="-1127.3" font-family="Times,serif" font-size="14.00" fill="#ffffff">MatMul (op#0)</text>
</a>
</g>
</g>
<!-- add&#45;reshape&#45;transpose (op#1) -->
<g id="node2" class="node">
<title>add&#45;reshape&#45;transpose (op#1)</title>
<g id="a_node2"><a xlink:href="javascript:alert('\nDuration: 3 \u00b5s\nMax theoritical speedup: 1.032')" xlink:title="add&#45;reshape&#45;transpose (op#1)">
<polygon fill="#ff6600" stroke="darkred" stroke-width="3" points="233,-1076 0,-1076 0,-1040 233,-1040 233,-1076"/>
<text text-anchor="middle" x="116.5" y="-1054.3" font-family="Times,serif" font-size="14.00" fill="#ffffff">add&#45;reshape&#45;transpose (op#1)</text>
</a>
</g>
</g>
<!-- MatMul (op#0)&#45;&gt;add&#45;reshape&#45;transpose (op#1) -->
<g id="edge1" class="edge">
<title>MatMul (op#0)&#45;&gt;add&#45;reshape&#45;transpose (op#1)</title>
<path fill="none" stroke="darkred" stroke-width="2" d="M177.13,-1112.81C167.01,-1103.83 154.46,-1092.69 143.41,-1082.89"/>
<polygon fill="darkred" stroke="darkred" stroke-width="2" points="145.49,-1080.05 135.69,-1076.03 140.84,-1085.28 145.49,-1080.05"/>
</g>
<!-- MatMul (op#6) -->
<g id="node7" class="node">
<title>MatMul (op#6)</title>
<g id="a_node7"><a xlink:href="javascript:alert('Inputs:\n\tinput0 /attention/self/Transpose_1_output_0\n\tinput1 /attention/self/Transpose_2_output_0\nOutputs: \n\toutput0 /attention/self/MatMul_output_0\nDuration: 3 \u00b5s\nMax theoritical speedup: 1.032')" xlink:title="MatMul (op#6)">
<polygon fill="#ff6600" stroke="darkred" stroke-width="3" points="391.5,-968 265.5,-968 265.5,-932 391.5,-932 391.5,-968"/>
<text text-anchor="middle" x="328.5" y="-946.3" font-family="Times,serif" font-size="14.00" fill="#ffffff">MatMul (op#6)</text>
</a>
</g>
</g>
<!-- add&#45;reshape&#45;transpose (op#1)&#45;&gt;MatMul (op#6) -->
<g id="edge6" class="edge">
<title>add&#45;reshape&#45;transpose (op#1)&#45;&gt;MatMul (op#6)</title>
<path fill="none" stroke="darkred" stroke-width="2" d="M150.56,-1039.97C187.16,-1021.67 245.41,-992.55 285.22,-972.64"/>
<polygon fill="darkred" stroke="darkred" stroke-width="2" points="286.79,-975.77 294.17,-968.16 283.66,-969.51 286.79,-975.77"/>
<text text-anchor="middle" x="275" y="-1000.3" font-family="Times,serif" font-size="14.00">0.104</text>
</g>
<!-- onnx::MatMul_0 -->
<g id="node3" class="node">
<title>onnx::MatMul_0</title>
<polygon fill="none" stroke="black" points="502.5,-1196.54 502.5,-1211.46 448.02,-1222 370.98,-1222 316.5,-1211.46 316.5,-1196.54 370.98,-1186 448.02,-1186 502.5,-1196.54"/>
<text text-anchor="middle" x="409.5" y="-1200.3" font-family="Times,serif" font-size="14.00">onnx::MatMul_0</text>
</g>
<!-- onnx::MatMul_0&#45;&gt;MatMul (op#0) -->
<g id="edge2" class="edge">
<title>onnx::MatMul_0&#45;&gt;MatMul (op#0)</title>
<path fill="none" stroke="darkred" stroke-width="2" d="M363.02,-1187.51C332.05,-1177.18 291.02,-1163.51 257.44,-1152.31"/>
<polygon fill="darkred" stroke="darkred" stroke-width="2" points="258.32,-1148.92 247.73,-1149.08 256.11,-1155.56 258.32,-1148.92"/>
</g>
<!-- MatMul (op#2) -->
<g id="node4" class="node">
<title>MatMul (op#2)</title>
<g id="a_node4"><a xlink:href="javascript:alert('Inputs:\n\tinput0 onnx::MatMul_0\n\tinput1 onnx::MatMul_107\nOutputs: \n\toutput0 /attention/self/key/MatMul_output_0\nDuration: 6 \u00b5s\nMax theoritical speedup: 1.067')" xlink:title="MatMul (op#2)">
<polygon fill="#ffcc00" stroke="#000000" stroke-width="0.5" points="304.5,-1113 325.5,-1113 325.5,-1149 304.5,-1149 304.5,-1113"/>
<polygon fill="#d0d0d0" stroke="#000000" stroke-width="0.5" points="325.5,-1113 346.5,-1113 346.5,-1149 325.5,-1149 325.5,-1113"/>
<polygon fill="#ffcc00" stroke="#000000" stroke-width="0.5" points="346.5,-1113 367.5,-1113 367.5,-1149 346.5,-1149 346.5,-1113"/>
<polygon fill="#d0d0d0" stroke="#000000" stroke-width="0.5" points="367.5,-1113 388.5,-1113 388.5,-1149 367.5,-1149 367.5,-1113"/>
<polygon fill="#ffcc00" stroke="#000000" stroke-width="0.5" points="388.5,-1113 409.5,-1113 409.5,-1149 388.5,-1149 388.5,-1113"/>
<polygon fill="#d0d0d0" stroke="#000000" stroke-width="0.5" points="409.5,-1113 430.5,-1113 430.5,-1149 409.5,-1149 409.5,-1113"/>
<polygon fill="none" stroke="#000000" points="430.5,-1149 304.5,-1149 304.5,-1113 430.5,-1113 430.5,-1149"/>
<text text-anchor="middle" x="367.5" y="-1127.3" font-family="Times,serif" font-size="14.00" fill="#ffffff">MatMul (op#2)</text>
</a>
</g>
</g>
<!-- onnx::MatMul_0&#45;&gt;MatMul (op#2) -->
<g id="edge3" class="edge">
<title>onnx::MatMul_0&#45;&gt;MatMul (op#2)</title>
<path fill="none" stroke="black" d="M399.33,-1185.81C394.38,-1177.44 388.32,-1167.2 382.82,-1157.9"/>
<polygon fill="black" stroke="black" points="385.68,-1155.85 377.57,-1149.03 379.65,-1159.42 385.68,-1155.85"/>
</g>
<!-- MatMul (op#4) -->
<g id="node5" class="node">
<title>MatMul (op#4)</title>
<g id="a_node5"><a xlink:href="javascript:alert('Inputs:\n\tinput0 onnx::MatMul_0\n\tinput1 onnx::MatMul_113\nOutputs: \n\toutput0 /attention/self/value/MatMul_output_0\nDuration: 6 \u00b5s\nMax theoritical speedup: 1.067')" xlink:title="MatMul (op#4)">
<polygon fill="#ffcc00" stroke="#000000" stroke-width="0.5" points="448.5,-1113 469.5,-1113 469.5,-1149 448.5,-1149 448.5,-1113"/>
<polygon fill="#d0d0d0" stroke="#000000" stroke-width="0.5" points="469.5,-1113 490.5,-1113 490.5,-1149 469.5,-1149 469.5,-1113"/>
<polygon fill="#ffcc00" stroke="#000000" stroke-width="0.5" points="490.5,-1113 511.5,-1113 511.5,-1149 490.5,-1149 490.5,-1113"/>
<polygon fill="#d0d0d0" stroke="#000000" stroke-width="0.5" points="511.5,-1113 532.5,-1113 532.5,-1149 511.5,-1149 511.5,-1113"/>
<polygon fill="#ffcc00" stroke="#000000" stroke-width="0.5" points="532.5,-1113 553.5,-1113 553.5,-1149 532.5,-1149 532.5,-1113"/>
<polygon fill="#d0d0d0" stroke="#000000" stroke-width="0.5" points="553.5,-1113 574.5,-1113 574.5,-1149 553.5,-1149 553.5,-1113"/>
<polygon fill="none" stroke="#000000" points="574.5,-1149 448.5,-1149 448.5,-1113 574.5,-1113 574.5,-1149"/>
<text text-anchor="middle" x="511.5" y="-1127.3" font-family="Times,serif" font-size="14.00" fill="#ffffff">MatMul (op#4)</text>
</a>
</g>
</g>
<!-- onnx::MatMul_0&#45;&gt;MatMul (op#4) -->
<g id="edge4" class="edge">
<title>onnx::MatMul_0&#45;&gt;MatMul (op#4)</title>
<path fill="none" stroke="black" d="M433.93,-1185.99C447.33,-1176.67 464.13,-1164.97 478.66,-1154.86"/>
<polygon fill="black" stroke="black" points="480.71,-1157.7 486.91,-1149.11 476.71,-1151.95 480.71,-1157.7"/>
</g>
<!-- add&#45;normalization (op#13) -->
<g id="node6" class="node">
<title>add&#45;normalization (op#13)</title>
<g id="a_node6"><a xlink:href="javascript:alert('\nDuration: 5 \u00b5s\nMax theoritical speedup: 1.055')" xlink:title="add&#45;normalization (op#13)">
<polygon fill="#ffaa00" stroke="darkred" stroke-width="3" points="691.5,-429 483.5,-429 483.5,-393 691.5,-393 691.5,-429"/>
<text text-anchor="middle" x="587.5" y="-407.3" font-family="Times,serif" font-size="14.00" fill="#ffffff">add&#45;normalization (op#13)</text>
</a>
</g>
</g>
<!-- onnx::MatMul_0&#45;&gt;add&#45;normalization (op#13) -->
<g id="edge5" class="edge">
<title>onnx::MatMul_0&#45;&gt;add&#45;normalization (op#13)</title>
<path fill="none" stroke="black" d="M483.15,-1192.73C545.05,-1181.97 623.5,-1162.34 623.5,-1132 623.5,-1132 623.5,-1132 623.5,-497 623.5,-475.97 614.04,-454.16 604.82,-437.9"/>
<polygon fill="black" stroke="black" points="607.63,-435.79 599.49,-429.02 601.63,-439.39 607.63,-435.79"/>
<text text-anchor="middle" x="644" y="-800.3" font-family="Times,serif" font-size="14.00">0.000</text>
</g>
<!-- add&#45;reshape&#45;transpose (op#3) -->
<g id="node8" class="node">
<title>add&#45;reshape&#45;transpose (op#3)</title>
<g id="a_node8"><a xlink:href="javascript:alert('\nDuration: 4 \u00b5s\nMax theoritical speedup: 1.043')" xlink:title="add&#45;reshape&#45;transpose (op#3)">
<polygon fill="#ff8800" stroke="#000000" stroke-width="0.5" points="251,-1040 289.83,-1040 289.83,-1076 251,-1076 251,-1040"/>
<polygon fill="#d0d0d0" stroke="#000000" stroke-width="0.5" points="289.83,-1040 328.67,-1040 328.67,-1076 289.83,-1076 289.83,-1040"/>
<polygon fill="#ff8800" stroke="#000000" stroke-width="0.5" points="328.67,-1040 367.5,-1040 367.5,-1076 328.67,-1076 328.67,-1040"/>
<polygon fill="#d0d0d0" stroke="#000000" stroke-width="0.5" points="367.5,-1040 406.33,-1040 406.33,-1076 367.5,-1076 367.5,-1040"/>
<polygon fill="#ff8800" stroke="#000000" stroke-width="0.5" points="406.33,-1040 445.17,-1040 445.17,-1076 406.33,-1076 406.33,-1040"/>
<polygon fill="#d0d0d0" stroke="#000000" stroke-width="0.5" points="445.17,-1040 484,-1040 484,-1076 445.17,-1076 445.17,-1040"/>
<polygon fill="none" stroke="#000000" points="484,-1076 251,-1076 251,-1040 484,-1040 484,-1076"/>
<text text-anchor="middle" x="367.5" y="-1054.3" font-family="Times,serif" font-size="14.00" fill="#ffffff">add&#45;reshape&#45;transpose (op#3)</text>
</a>
</g>
</g>
<!-- MatMul (op#2)&#45;&gt;add&#45;reshape&#45;transpose (op#3) -->
<g id="edge7" class="edge">
<title>MatMul (op#2)&#45;&gt;add&#45;reshape&#45;transpose (op#3)</title>
<path fill="none" stroke="black" d="M367.5,-1112.81C367.5,-1104.79 367.5,-1095.05 367.5,-1086.07"/>
<polygon fill="black" stroke="black" points="371,-1086.03 367.5,-1076.03 364,-1086.03 371,-1086.03"/>
</g>
<!-- add&#45;reshape&#45;transpose (op#5) -->
<g id="node9" class="node">
<title>add&#45;reshape&#45;transpose (op#5)</title>
<g id="a_node9"><a xlink:href="javascript:alert('\nDuration: 3 \u00b5s\nMax theoritical speedup: 1.032')" xlink:title="add&#45;reshape&#45;transpose (op#5)">
<polygon fill="#ff6600" stroke="#000000" stroke-width="0.5" points="375,-986 413.83,-986 413.83,-1022 375,-1022 375,-986"/>
<polygon fill="#d0d0d0" stroke="#000000" stroke-width="0.5" points="413.83,-986 452.67,-986 452.67,-1022 413.83,-1022 413.83,-986"/>
<polygon fill="#ff6600" stroke="#000000" stroke-width="0.5" points="452.67,-986 491.5,-986 491.5,-1022 452.67,-1022 452.67,-986"/>
<polygon fill="#d0d0d0" stroke="#000000" stroke-width="0.5" points="491.5,-986 530.33,-986 530.33,-1022 491.5,-1022 491.5,-986"/>
<polygon fill="#ff6600" stroke="#000000" stroke-width="0.5" points="530.33,-986 569.17,-986 569.17,-1022 530.33,-1022 530.33,-986"/>
<polygon fill="#d0d0d0" stroke="#000000" stroke-width="0.5" points="569.17,-986 608,-986 608,-1022 569.17,-1022 569.17,-986"/>
<polygon fill="none" stroke="#000000" points="608,-1022 375,-1022 375,-986 608,-986 608,-1022"/>
<text text-anchor="middle" x="491.5" y="-1000.3" font-family="Times,serif" font-size="14.00" fill="#ffffff">add&#45;reshape&#45;transpose (op#5)</text>
</a>
</g>
</g>
<!-- MatMul (op#4)&#45;&gt;add&#45;reshape&#45;transpose (op#5) -->
<g id="edge9" class="edge">
<title>MatMul (op#4)&#45;&gt;add&#45;reshape&#45;transpose (op#5)</title>
<path fill="none" stroke="black" d="M508.76,-1112.88C505.44,-1092.15 499.81,-1056.95 495.89,-1032.42"/>
<polygon fill="black" stroke="black" points="499.31,-1031.63 494.27,-1022.31 492.39,-1032.74 499.31,-1031.63"/>
</g>
<!-- MatMul (op#14) -->
<g id="node16" class="node">
<title>MatMul (op#14)</title>
<g id="a_node16"><a xlink:href="javascript:alert('Inputs:\n\tinput0 /attention/output/LayerNorm/LayerNormalization_output_0\n\tinput1 onnx::MatMul_129\nOutputs: \n\toutput0 /intermediate/dense/MatMul_output_0\nDuration: 15 \u00b5s\nMax theoritical speedup: 1.185')" xlink:title="MatMul (op#14)">
<polygon fill="#00ff00" stroke="darkred" stroke-width="3" points="607,-356 472,-356 472,-320 607,-320 607,-356"/>
<text text-anchor="middle" x="539.5" y="-334.3" font-family="Times,serif" font-size="14.00" fill="#ffffff">MatMul (op#14)</text>
</a>
</g>
</g>
<!-- add&#45;normalization (op#13)&#45;&gt;MatMul (op#14) -->
<g id="edge18" class="edge">
<title>add&#45;normalization (op#13)&#45;&gt;MatMul (op#14)</title>
<path fill="none" stroke="darkred" stroke-width="2" d="M575.88,-392.81C570.1,-384.27 563.01,-373.77 556.62,-364.32"/>
<polygon fill="darkred" stroke="darkred" stroke-width="2" points="559.51,-362.35 551.01,-356.03 553.71,-366.27 559.51,-362.35"/>
</g>
<!-- add&#45;normalization (op#18) -->
<g id="node17" class="node">
<title>add&#45;normalization (op#18)</title>
<g id="a_node17"><a xlink:href="javascript:alert('\nDuration: 5 \u00b5s\nMax theoritical speedup: 1.055')" xlink:title="add&#45;normalization (op#18)">
<polygon fill="#ffaa00" stroke="darkred" stroke-width="3" points="699.5,-36 491.5,-36 491.5,0 699.5,0 699.5,-36"/>
<text text-anchor="middle" x="595.5" y="-14.3" font-family="Times,serif" font-size="14.00" fill="#ffffff">add&#45;normalization (op#18)</text>
</a>
</g>
</g>
<!-- add&#45;normalization (op#13)&#45;&gt;add&#45;normalization (op#18) -->
<g id="edge19" class="edge">
<title>add&#45;normalization (op#13)&#45;&gt;add&#45;normalization (op#18)</title>
<path fill="none" stroke="black" d="M607.58,-392.87C620.73,-379.66 635.5,-360.13 635.5,-339 635.5,-339 635.5,-339 635.5,-104 635.5,-80.8 630.71,-74.83 620.5,-54 618.94,-50.82 617.1,-47.62 615.14,-44.51"/>
<polygon fill="black" stroke="black" points="617.93,-42.39 609.41,-36.09 612.14,-46.33 617.93,-42.39"/>
<text text-anchor="middle" x="656" y="-217.8" font-family="Times,serif" font-size="14.00">0.000</text>
</g>
<!-- Div (op#7) -->
<g id="node11" class="node">
<title>Div (op#7)</title>
<g id="a_node11"><a xlink:href="javascript:alert('Inputs:\n\tinput0 /attention/self/MatMul_output_0\n\tinput1 /attention/self/Constant_3_output_0\nOutputs: \n\toutput0 /attention/self/Div_output_0\nDuration: 2 \u00b5s\nMax theoritical speedup: 1.021')" xlink:title="Div (op#7)">
<polygon fill="#ff4300" stroke="darkred" stroke-width="3" points="385.5,-895 291.5,-895 291.5,-859 385.5,-859 385.5,-895"/>
<text text-anchor="middle" x="338.5" y="-873.3" font-family="Times,serif" font-size="14.00" fill="#ffffff">Div (op#7)</text>
</a>
</g>
</g>
<!-- MatMul (op#6)&#45;&gt;Div (op#7) -->
<g id="edge11" class="edge">
<title>MatMul (op#6)&#45;&gt;Div (op#7)</title>
<path fill="none" stroke="darkred" stroke-width="2" d="M330.92,-931.81C332.05,-923.79 333.42,-914.05 334.69,-905.07"/>
<polygon fill="darkred" stroke="darkred" stroke-width="2" points="338.17,-905.42 336.1,-895.03 331.24,-904.44 338.17,-905.42"/>
</g>
<!-- add&#45;reshape&#45;transpose (op#3)&#45;&gt;MatMul (op#6) -->
<g id="edge8" class="edge">
<title>add&#45;reshape&#45;transpose (op#3)&#45;&gt;MatMul (op#6)</title>
<path fill="none" stroke="black" d="M339.16,-1039.98C333.25,-1034.98 327.81,-1028.95 324.5,-1022 318.08,-1008.49 318.63,-991.87 320.99,-978.11"/>
<polygon fill="black" stroke="black" points="324.43,-978.75 323.07,-968.24 317.58,-977.31 324.43,-978.75"/>
<text text-anchor="middle" x="345" y="-1000.3" font-family="Times,serif" font-size="14.00">0.104</text>
</g>
<!-- MatMul (op#9) -->
<g id="node10" class="node">
<title>MatMul (op#9)</title>
<g id="a_node10"><a xlink:href="javascript:alert('Inputs:\n\tinput0 /attention/self/Softmax_output_0\n\tinput1 /attention/self/Transpose_output_0\nOutputs: \n\toutput0 /attention/self/MatMul_1_output_0\nDuration: 3 \u00b5s\nMax theoritical speedup: 1.032')" xlink:title="MatMul (op#9)">
<polygon fill="#ff6600" stroke="darkred" stroke-width="3" points="552.5,-735 426.5,-735 426.5,-699 552.5,-699 552.5,-735"/>
<text text-anchor="middle" x="489.5" y="-713.3" font-family="Times,serif" font-size="14.00" fill="#ffffff">MatMul (op#9)</text>
</a>
</g>
</g>
<!-- add&#45;reshape&#45;transpose (op#5)&#45;&gt;MatMul (op#9) -->
<g id="edge10" class="edge">
<title>add&#45;reshape&#45;transpose (op#5)&#45;&gt;MatMul (op#9)</title>
<path fill="none" stroke="black" d="M491.19,-985.94C490.9,-968.02 490.5,-939.03 490.5,-914 490.5,-914 490.5,-914 490.5,-803 490.5,-783.75 490.24,-762.05 489.99,-745.4"/>
<polygon fill="black" stroke="black" points="493.48,-745.2 489.82,-735.26 486.48,-745.31 493.48,-745.2"/>
<text text-anchor="middle" x="511" y="-873.3" font-family="Times,serif" font-size="14.00">0.094</text>
</g>
<!-- transpose&#45;reshape (op#10) -->
<g id="node13" class="node">
<title>transpose&#45;reshape (op#10)</title>
<g id="a_node13"><a xlink:href="javascript:alert('\nDuration: 3 \u00b5s\nMax theoritical speedup: 1.032')" xlink:title="transpose&#45;reshape (op#10)">
<polygon fill="#ff6600" stroke="darkred" stroke-width="3" points="595,-662 384,-662 384,-626 595,-626 595,-662"/>
<text text-anchor="middle" x="489.5" y="-640.3" font-family="Times,serif" font-size="14.00" fill="#ffffff">transpose&#45;reshape (op#10)</text>
</a>
</g>
</g>
<!-- MatMul (op#9)&#45;&gt;transpose&#45;reshape (op#10) -->
<g id="edge14" class="edge">
<title>MatMul (op#9)&#45;&gt;transpose&#45;reshape (op#10)</title>
<path fill="none" stroke="darkred" stroke-width="2" d="M489.5,-698.81C489.5,-690.79 489.5,-681.05 489.5,-672.07"/>
<polygon fill="darkred" stroke="darkred" stroke-width="2" points="493,-672.03 489.5,-662.03 486,-672.03 493,-672.03"/>
</g>
<!-- Softmax (op#8) -->
<g id="node12" class="node">
<title>Softmax (op#8)</title>
<g id="a_node12"><a xlink:href="javascript:alert('Inputs:\n\tinput0 /attention/self/Div_output_0\nOutputs: \n\toutput0 /attention/self/Softmax_output_0\nDuration: 3 \u00b5s\nMax theoritical speedup: 1.032')" xlink:title="Softmax (op#8)">
<polygon fill="#ff6600" stroke="darkred" stroke-width="3" points="442,-822 313,-822 313,-786 442,-786 442,-822"/>
<text text-anchor="middle" x="377.5" y="-800.3" font-family="Times,serif" font-size="14.00" fill="#ffffff">Softmax (op#8)</text>
</a>
</g>
</g>
<!-- Div (op#7)&#45;&gt;Softmax (op#8) -->
<g id="edge12" class="edge">
<title>Div (op#7)&#45;&gt;Softmax (op#8)</title>
<path fill="none" stroke="darkred" stroke-width="2" d="M347.94,-858.81C352.54,-850.44 358.17,-840.2 363.27,-830.9"/>
<polygon fill="darkred" stroke="darkred" stroke-width="2" points="366.4,-832.48 368.15,-822.03 360.26,-829.11 366.4,-832.48"/>
</g>
<!-- Softmax (op#8)&#45;&gt;MatMul (op#9) -->
<g id="edge13" class="edge">
<title>Softmax (op#8)&#45;&gt;MatMul (op#9)</title>
<path fill="none" stroke="darkred" stroke-width="2" d="M396.03,-785.89C407.16,-775.9 421.78,-763.29 435.5,-753 441.03,-748.86 447.03,-744.68 452.96,-740.71"/>
<polygon fill="darkred" stroke="darkred" stroke-width="2" points="455.09,-743.51 461.54,-735.1 451.25,-737.65 455.09,-743.51"/>
<text text-anchor="middle" x="456" y="-756.8" font-family="Times,serif" font-size="14.00">0.188</text>
</g>
<!-- MatMul (op#11) -->
<g id="node14" class="node">
<title>MatMul (op#11)</title>
<g id="a_node14"><a xlink:href="javascript:alert('Inputs:\n\tinput0 /attention/self/Reshape_3_output_0\n\tinput1 onnx::MatMul_128\nOutputs: \n\toutput0 /attention/output/dense/MatMul_output_0\nDuration: 6 \u00b5s\nMax theoritical speedup: 1.067')" xlink:title="MatMul (op#11)">
<polygon fill="#ffcc00" stroke="darkred" stroke-width="3" points="585,-589 450,-589 450,-553 585,-553 585,-589"/>
<text text-anchor="middle" x="517.5" y="-567.3" font-family="Times,serif" font-size="14.00" fill="#ffffff">MatMul (op#11)</text>
</a>
</g>
</g>
<!-- transpose&#45;reshape (op#10)&#45;&gt;MatMul (op#11) -->
<g id="edge15" class="edge">
<title>transpose&#45;reshape (op#10)&#45;&gt;MatMul (op#11)</title>
<path fill="none" stroke="darkred" stroke-width="2" d="M496.28,-625.81C499.51,-617.62 503.45,-607.62 507.06,-598.48"/>
<polygon fill="darkred" stroke="darkred" stroke-width="2" points="510.37,-599.62 510.78,-589.03 503.86,-597.05 510.37,-599.62"/>
</g>
<!-- add (op#12) -->
<g id="node15" class="node">
<title>add (op#12)</title>
<g id="a_node15"><a xlink:href="javascript:alert('\nDuration: 2 \u00b5s\nMax theoritical speedup: 1.021')" xlink:title="add (op#12)">
<polygon fill="#ff4300" stroke="darkred" stroke-width="3" points="588,-516 483,-516 483,-480 588,-480 588,-516"/>
<text text-anchor="middle" x="535.5" y="-494.3" font-family="Times,serif" font-size="14.00" fill="#ffffff">add (op#12)</text>
</a>
</g>
</g>
<!-- MatMul (op#11)&#45;&gt;add (op#12) -->
<g id="edge16" class="edge">
<title>MatMul (op#11)&#45;&gt;add (op#12)</title>
<path fill="none" stroke="darkred" stroke-width="2" d="M521.86,-552.81C523.91,-544.7 526.41,-534.84 528.71,-525.78"/>
<polygon fill="darkred" stroke="darkred" stroke-width="2" points="532.12,-526.58 531.18,-516.03 525.33,-524.86 532.12,-526.58"/>
</g>
<!-- add (op#12)&#45;&gt;add&#45;normalization (op#13) -->
<g id="edge17" class="edge">
<title>add (op#12)&#45;&gt;add&#45;normalization (op#13)</title>
<path fill="none" stroke="darkred" stroke-width="2" d="M546.02,-479.8C553.35,-467.82 563.26,-451.62 571.56,-438.06"/>
<polygon fill="darkred" stroke="darkred" stroke-width="2" points="574.76,-439.53 576.99,-429.18 568.79,-435.88 574.76,-439.53"/>
<text text-anchor="middle" x="585" y="-450.8" font-family="Times,serif" font-size="14.00">0.333</text>
</g>
<!-- gelu (op#15) -->
<g id="node18" class="node">
<title>gelu (op#15)</title>
<g id="a_node18"><a xlink:href="javascript:alert('\nDuration: 4 \u00b5s\nMax theoritical speedup: 1.043')" xlink:title="gelu (op#15)">
<polygon fill="#ff8800" stroke="darkred" stroke-width="3" points="594.5,-283 484.5,-283 484.5,-247 594.5,-247 594.5,-283"/>
<text text-anchor="middle" x="539.5" y="-261.3" font-family="Times,serif" font-size="14.00" fill="#ffffff">gelu (op#15)</text>
</a>
</g>
</g>
<!-- MatMul (op#14)&#45;&gt;gelu (op#15) -->
<g id="edge20" class="edge">
<title>MatMul (op#14)&#45;&gt;gelu (op#15)</title>
<path fill="none" stroke="darkred" stroke-width="2" d="M539.5,-319.81C539.5,-311.79 539.5,-302.05 539.5,-293.07"/>
<polygon fill="darkred" stroke="darkred" stroke-width="2" points="543,-293.03 539.5,-283.03 536,-293.03 543,-293.03"/>
</g>
<!-- MatMul (op#16) -->
<g id="node19" class="node">
<title>MatMul (op#16)</title>
<g id="a_node19"><a xlink:href="javascript:alert('Inputs:\n\tinput0 /intermediate/intermediate_act_fn/Mul_1_output_0\n\tinput1 onnx::MatMul_130\nOutputs: \n\toutput0 /output/dense/MatMul_output_0\nDuration: 13 \u00b5s\nMax theoritical speedup: 1.157')" xlink:title="MatMul (op#16)">
<polygon fill="#44ff00" stroke="darkred" stroke-width="3" points="607,-196 472,-196 472,-160 607,-160 607,-196"/>
<text text-anchor="middle" x="539.5" y="-174.3" font-family="Times,serif" font-size="14.00" fill="#ffffff">MatMul (op#16)</text>
</a>
</g>
</g>
<!-- gelu (op#15)&#45;&gt;MatMul (op#16) -->
<g id="edge21" class="edge">
<title>gelu (op#15)&#45;&gt;MatMul (op#16)</title>
<path fill="none" stroke="darkred" stroke-width="2" d="M539.5,-246.8C539.5,-235.16 539.5,-219.55 539.5,-206.24"/>
<polygon fill="darkred" stroke="darkred" stroke-width="2" points="543,-206.18 539.5,-196.18 536,-206.18 543,-206.18"/>
</g>
<!-- add (op#17) -->
<g id="node20" class="node">
<title>add (op#17)</title>
<g id="a_node20"><a xlink:href="javascript:alert('\nDuration: 3 \u00b5s\nMax theoritical speedup: 1.032')" xlink:title="add (op#17)">
<polygon fill="#ff6600" stroke="darkred" stroke-width="3" points="603,-123 498,-123 498,-87 603,-87 603,-123"/>
<text text-anchor="middle" x="550.5" y="-101.3" font-family="Times,serif" font-size="14.00" fill="#ffffff">add (op#17)</text>
</a>
</g>
</g>
<!-- MatMul (op#16)&#45;&gt;add (op#17) -->
<g id="edge22" class="edge">
<title>MatMul (op#16)&#45;&gt;add (op#17)</title>
<path fill="none" stroke="darkred" stroke-width="2" d="M542.16,-159.81C543.41,-151.79 544.92,-142.05 546.31,-133.07"/>
<polygon fill="darkred" stroke="darkred" stroke-width="2" points="549.79,-133.45 547.86,-123.03 542.87,-132.38 549.79,-133.45"/>
</g>
<!-- add (op#17)&#45;&gt;add&#45;normalization (op#18) -->
<g id="edge23" class="edge">
<title>add (op#17)&#45;&gt;add&#45;normalization (op#18)</title>
<path fill="none" stroke="darkred" stroke-width="2" d="M559.61,-86.8C565.95,-74.82 574.53,-58.62 581.71,-45.06"/>
<polygon fill="darkred" stroke="darkred" stroke-width="2" points="584.82,-46.65 586.41,-36.18 578.63,-43.38 584.82,-46.65"/>
<text text-anchor="middle" x="596" y="-57.8" font-family="Times,serif" font-size="14.00">0.365</text>
</g>
</g>
</svg>
