<?xml version="1.0" encoding="UTF-8" standalone="no"?>
<!DOCTYPE svg PUBLIC "-//W3C//DTD SVG 1.1//EN"
 "http://www.w3.org/Graphics/SVG/1.1/DTD/svg11.dtd">
<!-- Generated by graphviz version 2.43.0 (0)
 -->
<!-- Title: main_graph Pages: 1 -->
<svg width="694pt" height="1124pt"
 viewBox="0.00 0.00 693.50 1124.00" xmlns="http://www.w3.org/2000/svg" xmlns:xlink="http://www.w3.org/1999/xlink">
<g id="graph0" class="graph" transform="scale(1 1) rotate(0) translate(4 1120)">
<title>main_graph</title>
<polygon fill="white" stroke="transparent" points="-4,4 -4,-1120 689.5,-1120 689.5,4 -4,4"/>
<!-- MatMul (op#0) -->
<g id="node1" class="node">
<title>MatMul (op#0)</title>
<g id="a_node1"><a xlink:href="javascript:alert('Inputs:\n\tinput0 onnx::MatMul_0\n\tinput1 onnx::MatMul_106\nOutputs: \n\toutput0 /attention/self/query/MatMul_output_0\nDuration: 8 ns\nMax theoritical speedup: 1.0761904761904761')" xlink:title="MatMul (op#0)">
<polygon fill="#ffef00" stroke="#000000" points="233.5,-1044 107.5,-1044 107.5,-1008 233.5,-1008 233.5,-1044"/>
<text text-anchor="middle" x="170.5" y="-1022.3" font-family="Times,serif" font-size="14.00" fill="#ffffff">MatMul (op#0)</text>
</a>
</g>
</g>
<!-- add&#45;reshape&#45;transpose (op#1) -->
<g id="node2" class="node">
<title>add&#45;reshape&#45;transpose (op#1)</title>
<g id="a_node2"><a xlink:href="javascript:alert('\nDuration: 4 ns\nMax theoritical speedup: 1.036697247706422')" xlink:title="add&#45;reshape&#45;transpose (op#1)">
<polygon fill="#ff7700" stroke="#000000" points="233,-972 0,-972 0,-936 233,-936 233,-972"/>
<text text-anchor="middle" x="116.5" y="-950.3" font-family="Times,serif" font-size="14.00" fill="#ffffff">add&#45;reshape&#45;transpose (op#1)</text>
</a>
</g>
</g>
<!-- MatMul (op#0)&#45;&gt;add&#45;reshape&#45;transpose (op#1) -->
<g id="edge1" class="edge">
<title>MatMul (op#0)&#45;&gt;add&#45;reshape&#45;transpose (op#1)</title>
<path fill="none" stroke="black" d="M157.15,-1007.7C150.74,-999.39 142.94,-989.28 135.89,-980.14"/>
<polygon fill="black" stroke="black" points="138.57,-977.88 129.69,-972.1 133.03,-982.16 138.57,-977.88"/>
</g>
<!-- MatMul (op#6) -->
<g id="node7" class="node">
<title>MatMul (op#6)</title>
<g id="a_node7"><a xlink:href="javascript:alert('Inputs:\n\tinput0 /attention/self/Transpose_1_output_0\n\tinput1 /attention/self/Transpose_2_output_0\nOutputs: \n\toutput0 /attention/self/MatMul_output_0\nDuration: 4 ns\nMax theoritical speedup: 1.036697247706422')" xlink:title="MatMul (op#6)">
<polygon fill="#ff7700" stroke="#000000" points="349.5,-900 223.5,-900 223.5,-864 349.5,-864 349.5,-900"/>
<text text-anchor="middle" x="286.5" y="-878.3" font-family="Times,serif" font-size="14.00" fill="#ffffff">MatMul (op#6)</text>
</a>
</g>
</g>
<!-- add&#45;reshape&#45;transpose (op#1)&#45;&gt;MatMul (op#6) -->
<g id="edge6" class="edge">
<title>add&#45;reshape&#45;transpose (op#1)&#45;&gt;MatMul (op#6)</title>
<path fill="none" stroke="black" d="M158.09,-935.88C181.53,-926.22 211,-914.09 235.8,-903.88"/>
<polygon fill="black" stroke="black" points="237.13,-907.11 245.05,-900.07 234.47,-900.64 237.13,-907.11"/>
</g>
<!-- onnx::MatMul_0 -->
<g id="node3" class="node">
<title>onnx::MatMul_0</title>
<polygon fill="none" stroke="black" points="532.5,-1090.54 532.5,-1105.46 478.02,-1116 400.98,-1116 346.5,-1105.46 346.5,-1090.54 400.98,-1080 478.02,-1080 532.5,-1090.54"/>
<text text-anchor="middle" x="439.5" y="-1094.3" font-family="Times,serif" font-size="14.00">onnx::MatMul_0</text>
</g>
<!-- onnx::MatMul_0&#45;&gt;MatMul (op#0) -->
<g id="edge2" class="edge">
<title>onnx::MatMul_0&#45;&gt;MatMul (op#0)</title>
<path fill="none" stroke="black" d="M385.39,-1082.92C344.74,-1072.34 288.61,-1057.74 243.91,-1046.1"/>
<polygon fill="black" stroke="black" points="244.54,-1042.65 233.98,-1043.52 242.78,-1049.42 244.54,-1042.65"/>
</g>
<!-- MatMul (op#2) -->
<g id="node4" class="node">
<title>MatMul (op#2)</title>
<g id="a_node4"><a xlink:href="javascript:alert('Inputs:\n\tinput0 onnx::MatMul_0\n\tinput1 onnx::MatMul_107\nOutputs: \n\toutput0 /attention/self/key/MatMul_output_0\nDuration: 7 ns\nMax theoritical speedup: 1.0660377358490565')" xlink:title="MatMul (op#2)">
<polygon fill="#ffd200" stroke="#000000" points="430.5,-1044 304.5,-1044 304.5,-1008 430.5,-1008 430.5,-1044"/>
<text text-anchor="middle" x="367.5" y="-1022.3" font-family="Times,serif" font-size="14.00" fill="#ffffff">MatMul (op#2)</text>
</a>
</g>
</g>
<!-- onnx::MatMul_0&#45;&gt;MatMul (op#2) -->
<g id="edge3" class="edge">
<title>onnx::MatMul_0&#45;&gt;MatMul (op#2)</title>
<path fill="none" stroke="black" d="M421.7,-1079.7C412.9,-1071.14 402.12,-1060.66 392.5,-1051.3"/>
<polygon fill="black" stroke="black" points="394.7,-1048.57 385.09,-1044.1 389.82,-1053.58 394.7,-1048.57"/>
</g>
<!-- MatMul (op#4) -->
<g id="node5" class="node">
<title>MatMul (op#4)</title>
<g id="a_node5"><a xlink:href="javascript:alert('Inputs:\n\tinput0 onnx::MatMul_0\n\tinput1 onnx::MatMul_113\nOutputs: \n\toutput0 /attention/self/value/MatMul_output_0\nDuration: 7 ns\nMax theoritical speedup: 1.0660377358490565')" xlink:title="MatMul (op#4)">
<polygon fill="#ffd200" stroke="#000000" points="574.5,-1044 448.5,-1044 448.5,-1008 574.5,-1008 574.5,-1044"/>
<text text-anchor="middle" x="511.5" y="-1022.3" font-family="Times,serif" font-size="14.00" fill="#ffffff">MatMul (op#4)</text>
</a>
</g>
</g>
<!-- onnx::MatMul_0&#45;&gt;MatMul (op#4) -->
<g id="edge4" class="edge">
<title>onnx::MatMul_0&#45;&gt;MatMul (op#4)</title>
<path fill="none" stroke="black" d="M457.3,-1079.7C466.1,-1071.14 476.88,-1060.66 486.5,-1051.3"/>
<polygon fill="black" stroke="black" points="489.18,-1053.58 493.91,-1044.1 484.3,-1048.57 489.18,-1053.58"/>
</g>
<!-- add&#45;normalization (op#13) -->
<g id="node6" class="node">
<title>add&#45;normalization (op#13)</title>
<g id="a_node6"><a xlink:href="javascript:alert('\nDuration: 6 ns\nMax theoritical speedup: 1.0560747663551402')" xlink:title="add&#45;normalization (op#13)">
<polygon fill="#ffb300" stroke="#000000" points="685.5,-396 477.5,-396 477.5,-360 685.5,-360 685.5,-396"/>
<text text-anchor="middle" x="581.5" y="-374.3" font-family="Times,serif" font-size="14.00" fill="#ffffff">add&#45;normalization (op#13)</text>
</a>
</g>
</g>
<!-- onnx::MatMul_0&#45;&gt;add&#45;normalization (op#13) -->
<g id="edge5" class="edge">
<title>onnx::MatMul_0&#45;&gt;add&#45;normalization (op#13)</title>
<path fill="none" stroke="black" d="M502.61,-1084.62C529.96,-1076.69 560.83,-1064.01 583.5,-1044 616.88,-1014.53 629.5,-999.53 629.5,-955 629.5,-955 629.5,-955 629.5,-521 629.5,-478.87 610.3,-433.23 596.19,-405.37"/>
<polygon fill="black" stroke="black" points="599.18,-403.54 591.45,-396.29 592.97,-406.78 599.18,-403.54"/>
</g>
<!-- add&#45;reshape&#45;transpose (op#3) -->
<g id="node8" class="node">
<title>add&#45;reshape&#45;transpose (op#3)</title>
<g id="a_node8"><a xlink:href="javascript:alert('\nDuration: 5 ns\nMax theoritical speedup: 1.0462962962962963')" xlink:title="add&#45;reshape&#45;transpose (op#3)">
<polygon fill="#ff9500" stroke="#000000" points="484,-972 251,-972 251,-936 484,-936 484,-972"/>
<text text-anchor="middle" x="367.5" y="-950.3" font-family="Times,serif" font-size="14.00" fill="#ffffff">add&#45;reshape&#45;transpose (op#3)</text>
</a>
</g>
</g>
<!-- MatMul (op#2)&#45;&gt;add&#45;reshape&#45;transpose (op#3) -->
<g id="edge7" class="edge">
<title>MatMul (op#2)&#45;&gt;add&#45;reshape&#45;transpose (op#3)</title>
<path fill="none" stroke="black" d="M367.5,-1007.7C367.5,-999.98 367.5,-990.71 367.5,-982.11"/>
<polygon fill="black" stroke="black" points="371,-982.1 367.5,-972.1 364,-982.1 371,-982.1"/>
</g>
<!-- add&#45;reshape&#45;transpose (op#5) -->
<g id="node9" class="node">
<title>add&#45;reshape&#45;transpose (op#5)</title>
<g id="a_node9"><a xlink:href="javascript:alert('\nDuration: 3 ns\nMax theoritical speedup: 1.0272727272727273')" xlink:title="add&#45;reshape&#45;transpose (op#5)">
<polygon fill="#ff5900" stroke="#000000" points="601,-900 368,-900 368,-864 601,-864 601,-900"/>
<text text-anchor="middle" x="484.5" y="-878.3" font-family="Times,serif" font-size="14.00" fill="#ffffff">add&#45;reshape&#45;transpose (op#5)</text>
</a>
</g>
</g>
<!-- MatMul (op#4)&#45;&gt;add&#45;reshape&#45;transpose (op#5) -->
<g id="edge9" class="edge">
<title>MatMul (op#4)&#45;&gt;add&#45;reshape&#45;transpose (op#5)</title>
<path fill="none" stroke="black" d="M508.24,-1007.87C503.64,-983.67 495.19,-939.21 489.71,-910.39"/>
<polygon fill="black" stroke="black" points="493.07,-909.36 487.77,-900.19 486.2,-910.67 493.07,-909.36"/>
</g>
<!-- MatMul (op#14) -->
<g id="node16" class="node">
<title>MatMul (op#14)</title>
<g id="a_node16"><a xlink:href="javascript:alert('Inputs:\n\tinput0 /attention/output/LayerNorm/LayerNormalization_output_0\n\tinput1 onnx::MatMul_129\nOutputs: \n\toutput0 /intermediate/dense/MatMul_output_0\nDuration: 17 ns\nMax theoritical speedup: 1.1770833333333333')" xlink:title="MatMul (op#14)">
<polygon fill="#00ff00" stroke="#000000" points="601,-324 466,-324 466,-288 601,-288 601,-324"/>
<text text-anchor="middle" x="533.5" y="-302.3" font-family="Times,serif" font-size="14.00" fill="#ffffff">MatMul (op#14)</text>
</a>
</g>
</g>
<!-- add&#45;normalization (op#13)&#45;&gt;MatMul (op#14) -->
<g id="edge18" class="edge">
<title>add&#45;normalization (op#13)&#45;&gt;MatMul (op#14)</title>
<path fill="none" stroke="black" d="M569.63,-359.7C564,-351.47 557.15,-341.48 550.93,-332.42"/>
<polygon fill="black" stroke="black" points="553.77,-330.37 545.23,-324.1 548,-334.33 553.77,-330.37"/>
</g>
<!-- add&#45;normalization (op#18) -->
<g id="node17" class="node">
<title>add&#45;normalization (op#18)</title>
<g id="a_node17"><a xlink:href="javascript:alert('\nDuration: 6 ns\nMax theoritical speedup: 1.0560747663551402')" xlink:title="add&#45;normalization (op#18)">
<polygon fill="#ffb300" stroke="#000000" points="685.5,-36 477.5,-36 477.5,0 685.5,0 685.5,-36"/>
<text text-anchor="middle" x="581.5" y="-14.3" font-family="Times,serif" font-size="14.00" fill="#ffffff">add&#45;normalization (op#18)</text>
</a>
</g>
</g>
<!-- add&#45;normalization (op#13)&#45;&gt;add&#45;normalization (op#18) -->
<g id="edge19" class="edge">
<title>add&#45;normalization (op#13)&#45;&gt;add&#45;normalization (op#18)</title>
<path fill="none" stroke="black" d="M592.5,-359.94C598.58,-349.84 605.83,-336.59 610.5,-324 624.58,-286.08 629.5,-275.45 629.5,-235 629.5,-235 629.5,-235 629.5,-161 629.5,-118.87 610.3,-73.23 596.19,-45.37"/>
<polygon fill="black" stroke="black" points="599.18,-43.54 591.45,-36.29 592.97,-46.78 599.18,-43.54"/>
</g>
<!-- Div (op#7) -->
<g id="node11" class="node">
<title>Div (op#7)</title>
<g id="a_node11"><a xlink:href="javascript:alert('Inputs:\n\tinput0 /attention/self/MatMul_output_0\n\tinput1 /attention/self/Constant_3_output_0\nOutputs: \n\toutput0 /attention/self/Div_output_0\nDuration: 2 ns\nMax theoritical speedup: 1.018018018018018')" xlink:title="Div (op#7)">
<polygon fill="#ff3b00" stroke="#000000" points="385.5,-828 291.5,-828 291.5,-792 385.5,-792 385.5,-828"/>
<text text-anchor="middle" x="338.5" y="-806.3" font-family="Times,serif" font-size="14.00" fill="#ffffff">Div (op#7)</text>
</a>
</g>
</g>
<!-- MatMul (op#6)&#45;&gt;Div (op#7) -->
<g id="edge11" class="edge">
<title>MatMul (op#6)&#45;&gt;Div (op#7)</title>
<path fill="none" stroke="black" d="M299.35,-863.7C305.53,-855.39 313.04,-845.28 319.82,-836.14"/>
<polygon fill="black" stroke="black" points="322.64,-838.22 325.79,-828.1 317.02,-834.04 322.64,-838.22"/>
</g>
<!-- add&#45;reshape&#45;transpose (op#3)&#45;&gt;MatMul (op#6) -->
<g id="edge8" class="edge">
<title>add&#45;reshape&#45;transpose (op#3)&#45;&gt;MatMul (op#6)</title>
<path fill="none" stroke="black" d="M347.48,-935.7C337.37,-926.97 324.96,-916.24 313.98,-906.75"/>
<polygon fill="black" stroke="black" points="316.15,-903.99 306.29,-900.1 311.57,-909.29 316.15,-903.99"/>
</g>
<!-- MatMul (op#9) -->
<g id="node10" class="node">
<title>MatMul (op#9)</title>
<g id="a_node10"><a xlink:href="javascript:alert('Inputs:\n\tinput0 /attention/self/Softmax_output_0\n\tinput1 /attention/self/Transpose_output_0\nOutputs: \n\toutput0 /attention/self/MatMul_1_output_0\nDuration: 4 ns\nMax theoritical speedup: 1.036697247706422')" xlink:title="MatMul (op#9)">
<polygon fill="#ff7700" stroke="#000000" points="547.5,-684 421.5,-684 421.5,-648 547.5,-648 547.5,-684"/>
<text text-anchor="middle" x="484.5" y="-662.3" font-family="Times,serif" font-size="14.00" fill="#ffffff">MatMul (op#9)</text>
</a>
</g>
</g>
<!-- add&#45;reshape&#45;transpose (op#5)&#45;&gt;MatMul (op#9) -->
<g id="edge10" class="edge">
<title>add&#45;reshape&#45;transpose (op#5)&#45;&gt;MatMul (op#9)</title>
<path fill="none" stroke="black" d="M484.5,-863.85C484.5,-826.83 484.5,-739.18 484.5,-694.39"/>
<polygon fill="black" stroke="black" points="488,-694.23 484.5,-684.23 481,-694.23 488,-694.23"/>
</g>
<!-- transpose&#45;reshape (op#10) -->
<g id="node13" class="node">
<title>transpose&#45;reshape (op#10)</title>
<g id="a_node13"><a xlink:href="javascript:alert('\nDuration: 4 ns\nMax theoritical speedup: 1.036697247706422')" xlink:title="transpose&#45;reshape (op#10)">
<polygon fill="#ff7700" stroke="#000000" points="596,-612 385,-612 385,-576 596,-576 596,-612"/>
<text text-anchor="middle" x="490.5" y="-590.3" font-family="Times,serif" font-size="14.00" fill="#ffffff">transpose&#45;reshape (op#10)</text>
</a>
</g>
</g>
<!-- MatMul (op#9)&#45;&gt;transpose&#45;reshape (op#10) -->
<g id="edge14" class="edge">
<title>MatMul (op#9)&#45;&gt;transpose&#45;reshape (op#10)</title>
<path fill="none" stroke="black" d="M485.98,-647.7C486.64,-639.98 487.44,-630.71 488.18,-622.11"/>
<polygon fill="black" stroke="black" points="491.67,-622.37 489.03,-612.1 484.69,-621.77 491.67,-622.37"/>
</g>
<!-- Softmax (op#8) -->
<g id="node12" class="node">
<title>Softmax (op#8)</title>
<g id="a_node12"><a xlink:href="javascript:alert('Inputs:\n\tinput0 /attention/self/Div_output_0\nOutputs: \n\toutput0 /attention/self/Softmax_output_0\nDuration: 3 ns\nMax theoritical speedup: 1.0272727272727273')" xlink:title="Softmax (op#8)">
<polygon fill="#ff5900" stroke="#000000" points="430,-756 301,-756 301,-720 430,-720 430,-756"/>
<text text-anchor="middle" x="365.5" y="-734.3" font-family="Times,serif" font-size="14.00" fill="#ffffff">Softmax (op#8)</text>
</a>
</g>
</g>
<!-- Div (op#7)&#45;&gt;Softmax (op#8) -->
<g id="edge12" class="edge">
<title>Div (op#7)&#45;&gt;Softmax (op#8)</title>
<path fill="none" stroke="black" d="M345.17,-791.7C348.21,-783.81 351.88,-774.3 355.26,-765.55"/>
<polygon fill="black" stroke="black" points="358.57,-766.69 358.9,-756.1 352.04,-764.17 358.57,-766.69"/>
</g>
<!-- Softmax (op#8)&#45;&gt;MatMul (op#9) -->
<g id="edge13" class="edge">
<title>Softmax (op#8)&#45;&gt;MatMul (op#9)</title>
<path fill="none" stroke="black" d="M394.61,-719.88C410.17,-710.72 429.52,-699.34 446.28,-689.48"/>
<polygon fill="black" stroke="black" points="448.43,-692.28 455.28,-684.19 444.88,-686.24 448.43,-692.28"/>
</g>
<!-- MatMul (op#11) -->
<g id="node14" class="node">
<title>MatMul (op#11)</title>
<g id="a_node14"><a xlink:href="javascript:alert('Inputs:\n\tinput0 /attention/self/Reshape_3_output_0\n\tinput1 onnx::MatMul_128\nOutputs: \n\toutput0 /attention/output/dense/MatMul_output_0\nDuration: 7 ns\nMax theoritical speedup: 1.0660377358490565')" xlink:title="MatMul (op#11)">
<polygon fill="#ffd200" stroke="#000000" points="582,-540 447,-540 447,-504 582,-504 582,-540"/>
<text text-anchor="middle" x="514.5" y="-518.3" font-family="Times,serif" font-size="14.00" fill="#ffffff">MatMul (op#11)</text>
</a>
</g>
</g>
<!-- transpose&#45;reshape (op#10)&#45;&gt;MatMul (op#11) -->
<g id="edge15" class="edge">
<title>transpose&#45;reshape (op#10)&#45;&gt;MatMul (op#11)</title>
<path fill="none" stroke="black" d="M496.43,-575.7C499.11,-567.9 502.33,-558.51 505.3,-549.83"/>
<polygon fill="black" stroke="black" points="508.7,-550.7 508.64,-540.1 502.08,-548.43 508.7,-550.7"/>
</g>
<!-- add (op#12) -->
<g id="node15" class="node">
<title>add (op#12)</title>
<g id="a_node15"><a xlink:href="javascript:alert('\nDuration: 3 ns\nMax theoritical speedup: 1.0272727272727273')" xlink:title="add (op#12)">
<polygon fill="#ff5900" stroke="#000000" points="594,-468 489,-468 489,-432 594,-432 594,-468"/>
<text text-anchor="middle" x="541.5" y="-446.3" font-family="Times,serif" font-size="14.00" fill="#ffffff">add (op#12)</text>
</a>
</g>
</g>
<!-- MatMul (op#11)&#45;&gt;add (op#12) -->
<g id="edge16" class="edge">
<title>MatMul (op#11)&#45;&gt;add (op#12)</title>
<path fill="none" stroke="black" d="M521.17,-503.7C524.21,-495.81 527.88,-486.3 531.26,-477.55"/>
<polygon fill="black" stroke="black" points="534.57,-478.69 534.9,-468.1 528.04,-476.17 534.57,-478.69"/>
</g>
<!-- add (op#12)&#45;&gt;add&#45;normalization (op#13) -->
<g id="edge17" class="edge">
<title>add (op#12)&#45;&gt;add&#45;normalization (op#13)</title>
<path fill="none" stroke="black" d="M551.39,-431.7C555.99,-423.64 561.56,-413.89 566.65,-404.98"/>
<polygon fill="black" stroke="black" points="569.8,-406.52 571.73,-396.1 563.73,-403.05 569.8,-406.52"/>
</g>
<!-- gelu (op#15) -->
<g id="node18" class="node">
<title>gelu (op#15)</title>
<g id="a_node18"><a xlink:href="javascript:alert('\nDuration: 5 ns\nMax theoritical speedup: 1.0462962962962963')" xlink:title="gelu (op#15)">
<polygon fill="#ff9500" stroke="#000000" points="588.5,-252 478.5,-252 478.5,-216 588.5,-216 588.5,-252"/>
<text text-anchor="middle" x="533.5" y="-230.3" font-family="Times,serif" font-size="14.00" fill="#ffffff">gelu (op#15)</text>
</a>
</g>
</g>
<!-- MatMul (op#14)&#45;&gt;gelu (op#15) -->
<g id="edge20" class="edge">
<title>MatMul (op#14)&#45;&gt;gelu (op#15)</title>
<path fill="none" stroke="black" d="M533.5,-287.7C533.5,-279.98 533.5,-270.71 533.5,-262.11"/>
<polygon fill="black" stroke="black" points="537,-262.1 533.5,-252.1 530,-262.1 537,-262.1"/>
</g>
<!-- MatMul (op#16) -->
<g id="node19" class="node">
<title>MatMul (op#16)</title>
<g id="a_node19"><a xlink:href="javascript:alert('Inputs:\n\tinput0 /intermediate/intermediate_act_fn/Mul_1_output_0\n\tinput1 onnx::MatMul_130\nOutputs: \n\toutput0 /output/dense/MatMul_output_0\nDuration: 15 ns\nMax theoritical speedup: 1.153061224489796')" xlink:title="MatMul (op#16)">
<polygon fill="#3cff00" stroke="#000000" points="601,-180 466,-180 466,-144 601,-144 601,-180"/>
<text text-anchor="middle" x="533.5" y="-158.3" font-family="Times,serif" font-size="14.00" fill="#ffffff">MatMul (op#16)</text>
</a>
</g>
</g>
<!-- gelu (op#15)&#45;&gt;MatMul (op#16) -->
<g id="edge21" class="edge">
<title>gelu (op#15)&#45;&gt;MatMul (op#16)</title>
<path fill="none" stroke="black" d="M533.5,-215.7C533.5,-207.98 533.5,-198.71 533.5,-190.11"/>
<polygon fill="black" stroke="black" points="537,-190.1 533.5,-180.1 530,-190.1 537,-190.1"/>
</g>
<!-- add (op#17) -->
<g id="node20" class="node">
<title>add (op#17)</title>
<g id="a_node20"><a xlink:href="javascript:alert('\nDuration: 3 ns\nMax theoritical speedup: 1.0272727272727273')" xlink:title="add (op#17)">
<polygon fill="#ff5900" stroke="#000000" points="594,-108 489,-108 489,-72 594,-72 594,-108"/>
<text text-anchor="middle" x="541.5" y="-86.3" font-family="Times,serif" font-size="14.00" fill="#ffffff">add (op#17)</text>
</a>
</g>
</g>
<!-- MatMul (op#16)&#45;&gt;add (op#17) -->
<g id="edge22" class="edge">
<title>MatMul (op#16)&#45;&gt;add (op#17)</title>
<path fill="none" stroke="black" d="M535.48,-143.7C536.36,-135.98 537.42,-126.71 538.4,-118.11"/>
<polygon fill="black" stroke="black" points="541.89,-118.44 539.55,-108.1 534.93,-117.64 541.89,-118.44"/>
</g>
<!-- add (op#17)&#45;&gt;add&#45;normalization (op#18) -->
<g id="edge23" class="edge">
<title>add (op#17)&#45;&gt;add&#45;normalization (op#18)</title>
<path fill="none" stroke="black" d="M551.39,-71.7C555.99,-63.64 561.56,-53.89 566.65,-44.98"/>
<polygon fill="black" stroke="black" points="569.8,-46.52 571.73,-36.1 563.73,-43.05 569.8,-46.52"/>
</g>
</g>
</svg>
