<?xml version="1.0" encoding="UTF-8" standalone="no"?>
<!DOCTYPE svg PUBLIC "-//W3C//DTD SVG 1.1//EN"
 "http://www.w3.org/Graphics/SVG/1.1/DTD/svg11.dtd">
<!-- Generated by graphviz version 2.43.0 (0)
 -->
<!-- Title: main_graph Pages: 1 -->
<svg width="895pt" height="1844pt"
 viewBox="0.00 0.00 894.50 1844.00" xmlns="http://www.w3.org/2000/svg" xmlns:xlink="http://www.w3.org/1999/xlink">
<g id="graph0" class="graph" transform="scale(1 1) rotate(0) translate(4 1840)">
<title>main_graph</title>
<polygon fill="white" stroke="transparent" points="-4,4 -4,-1840 890.5,-1840 890.5,4 -4,4"/>
<!-- MatMul (op#0) -->
<g id="node1" class="node">
<title>MatMul (op#0)</title>
<g id="a_node1"><a xlink:href="javascript:alert('Inputs:\n\tinput0 onnx::MatMul_0\n\tinput1 onnx::MatMul_106\nOutputs: \n\toutput0 /attention/self/query/MatMul_output_0')" xlink:title="MatMul (op#0)">
<polygon fill="#0f9d58" stroke="#0f9d58" points="148,-1764 22,-1764 22,-1728 148,-1728 148,-1764"/>
<text text-anchor="middle" x="85" y="-1742.3" font-family="Times,serif" font-size="14.00" fill="#ffffff">MatMul (op#0)</text>
</a>
</g>
</g>
<!-- Add (op#1) -->
<g id="node2" class="node">
<title>Add (op#1)</title>
<g id="a_node2"><a xlink:href="javascript:alert('Inputs:\n\tinput0 attention.self.query.bias\n\tinput1 /attention/self/query/MatMul_output_0\nOutputs: \n\toutput0 /attention/self/query/Add_output_0')" xlink:title="Add (op#1)">
<polygon fill="#0f9d58" stroke="#0f9d58" points="98,-1692 0,-1692 0,-1656 98,-1656 98,-1692"/>
<text text-anchor="middle" x="49" y="-1670.3" font-family="Times,serif" font-size="14.00" fill="#ffffff">Add (op#1)</text>
</a>
</g>
</g>
<!-- MatMul (op#0)&#45;&gt;Add (op#1) -->
<g id="edge1" class="edge">
<title>MatMul (op#0)&#45;&gt;Add (op#1)</title>
<path fill="none" stroke="black" d="M76.1,-1727.7C72,-1719.73 67.05,-1710.1 62.51,-1701.26"/>
<polygon fill="black" stroke="black" points="65.48,-1699.4 57.8,-1692.1 59.26,-1702.6 65.48,-1699.4"/>
</g>
<!-- Reshape (op#12) -->
<g id="node7" class="node">
<title>Reshape (op#12)</title>
<g id="a_node7"><a xlink:href="javascript:alert('Inputs:\n\tinput0 /attention/self/query/Add_output_0\n\tinput1 /attention/self/Constant_2_output_0\nOutputs: \n\toutput0 /attention/self/Reshape_2_output_0')" xlink:title="Reshape (op#12)">
<polygon fill="#0f9d58" stroke="#0f9d58" points="243,-1620 103,-1620 103,-1584 243,-1584 243,-1620"/>
<text text-anchor="middle" x="173" y="-1598.3" font-family="Times,serif" font-size="14.00" fill="#ffffff">Reshape (op#12)</text>
</a>
</g>
</g>
<!-- Add (op#1)&#45;&gt;Reshape (op#12) -->
<g id="edge6" class="edge">
<title>Add (op#1)&#45;&gt;Reshape (op#12)</title>
<path fill="none" stroke="black" d="M79.33,-1655.88C95.7,-1646.64 116.08,-1635.13 133.65,-1625.21"/>
<polygon fill="black" stroke="black" points="135.56,-1628.15 142.55,-1620.19 132.12,-1622.06 135.56,-1628.15"/>
</g>
<!-- onnx::MatMul_0 -->
<g id="node3" class="node">
<title>onnx::MatMul_0</title>
<polygon fill="none" stroke="black" points="523,-1810.54 523,-1825.46 468.52,-1836 391.48,-1836 337,-1825.46 337,-1810.54 391.48,-1800 468.52,-1800 523,-1810.54"/>
<text text-anchor="middle" x="430" y="-1814.3" font-family="Times,serif" font-size="14.00">onnx::MatMul_0</text>
</g>
<!-- onnx::MatMul_0&#45;&gt;MatMul (op#0) -->
<g id="edge2" class="edge">
<title>onnx::MatMul_0&#45;&gt;MatMul (op#0)</title>
<path fill="none" stroke="black" d="M367.92,-1804.4C309.02,-1792.45 220.5,-1774.49 158.19,-1761.85"/>
<polygon fill="black" stroke="black" points="158.53,-1758.35 148.04,-1759.79 157.14,-1765.21 158.53,-1758.35"/>
</g>
<!-- MatMul (op#2) -->
<g id="node4" class="node">
<title>MatMul (op#2)</title>
<g id="a_node4"><a xlink:href="javascript:alert('Inputs:\n\tinput0 onnx::MatMul_0\n\tinput1 onnx::MatMul_107\nOutputs: \n\toutput0 /attention/self/key/MatMul_output_0')" xlink:title="MatMul (op#2)">
<polygon fill="#0f9d58" stroke="#0f9d58" points="421,-1764 295,-1764 295,-1728 421,-1728 421,-1764"/>
<text text-anchor="middle" x="358" y="-1742.3" font-family="Times,serif" font-size="14.00" fill="#ffffff">MatMul (op#2)</text>
</a>
</g>
</g>
<!-- onnx::MatMul_0&#45;&gt;MatMul (op#2) -->
<g id="edge3" class="edge">
<title>onnx::MatMul_0&#45;&gt;MatMul (op#2)</title>
<path fill="none" stroke="black" d="M412.2,-1799.7C403.4,-1791.14 392.62,-1780.66 383,-1771.3"/>
<polygon fill="black" stroke="black" points="385.2,-1768.57 375.59,-1764.1 380.32,-1773.58 385.2,-1768.57"/>
</g>
<!-- MatMul (op#6) -->
<g id="node5" class="node">
<title>MatMul (op#6)</title>
<g id="a_node5"><a xlink:href="javascript:alert('Inputs:\n\tinput0 onnx::MatMul_0\n\tinput1 onnx::MatMul_113\nOutputs: \n\toutput0 /attention/self/value/MatMul_output_0')" xlink:title="MatMul (op#6)">
<polygon fill="#0f9d58" stroke="#0f9d58" points="627,-1764 501,-1764 501,-1728 627,-1728 627,-1764"/>
<text text-anchor="middle" x="564" y="-1742.3" font-family="Times,serif" font-size="14.00" fill="#ffffff">MatMul (op#6)</text>
</a>
</g>
</g>
<!-- onnx::MatMul_0&#45;&gt;MatMul (op#6) -->
<g id="edge4" class="edge">
<title>onnx::MatMul_0&#45;&gt;MatMul (op#6)</title>
<path fill="none" stroke="black" d="M462.78,-1799.88C480.63,-1790.55 502.9,-1778.92 522,-1768.94"/>
<polygon fill="black" stroke="black" points="523.85,-1771.92 531.09,-1764.19 520.61,-1765.72 523.85,-1771.92"/>
</g>
<!-- Add (op#25) -->
<g id="node6" class="node">
<title>Add (op#25)</title>
<g id="a_node6"><a xlink:href="javascript:alert('Inputs:\n\tinput0 /attention/output/dense/Add_output_0\n\tinput1 onnx::MatMul_0\nOutputs: \n\toutput0 /attention/output/Add_output_0')" xlink:title="Add (op#25)">
<polygon fill="#0f9d58" stroke="#0f9d58" points="829.5,-900 722.5,-900 722.5,-864 829.5,-864 829.5,-900"/>
<text text-anchor="middle" x="776" y="-878.3" font-family="Times,serif" font-size="14.00" fill="#ffffff">Add (op#25)</text>
</a>
</g>
</g>
<!-- onnx::MatMul_0&#45;&gt;Add (op#25) -->
<g id="edge5" class="edge">
<title>onnx::MatMul_0&#45;&gt;Add (op#25)</title>
<path fill="none" stroke="black" d="M501.35,-1806.28C614.89,-1787.18 824,-1742.8 824,-1675 824,-1675 824,-1675 824,-1025 824,-982.87 804.8,-937.23 790.69,-909.37"/>
<polygon fill="black" stroke="black" points="793.68,-907.54 785.95,-900.29 787.47,-910.78 793.68,-907.54"/>
</g>
<!-- Add (op#3) -->
<g id="node8" class="node">
<title>Add (op#3)</title>
<g id="a_node8"><a xlink:href="javascript:alert('Inputs:\n\tinput0 attention.self.key.bias\n\tinput1 /attention/self/key/MatMul_output_0\nOutputs: \n\toutput0 /attention/self/key/Add_output_0')" xlink:title="Add (op#3)">
<polygon fill="#0f9d58" stroke="#0f9d58" points="376,-1692 278,-1692 278,-1656 376,-1656 376,-1692"/>
<text text-anchor="middle" x="327" y="-1670.3" font-family="Times,serif" font-size="14.00" fill="#ffffff">Add (op#3)</text>
</a>
</g>
</g>
<!-- MatMul (op#2)&#45;&gt;Add (op#3) -->
<g id="edge7" class="edge">
<title>MatMul (op#2)&#45;&gt;Add (op#3)</title>
<path fill="none" stroke="black" d="M350.34,-1727.7C346.81,-1719.73 342.54,-1710.1 338.63,-1701.26"/>
<polygon fill="black" stroke="black" points="341.82,-1699.83 334.57,-1692.1 335.42,-1702.67 341.82,-1699.83"/>
</g>
<!-- Add (op#7) -->
<g id="node12" class="node">
<title>Add (op#7)</title>
<g id="a_node12"><a xlink:href="javascript:alert('Inputs:\n\tinput0 attention.self.value.bias\n\tinput1 /attention/self/value/MatMul_output_0\nOutputs: \n\toutput0 /attention/self/value/Add_output_0')" xlink:title="Add (op#7)">
<polygon fill="#0f9d58" stroke="#0f9d58" points="644,-1692 546,-1692 546,-1656 644,-1656 644,-1692"/>
<text text-anchor="middle" x="595" y="-1670.3" font-family="Times,serif" font-size="14.00" fill="#ffffff">Add (op#7)</text>
</a>
</g>
</g>
<!-- MatMul (op#6)&#45;&gt;Add (op#7) -->
<g id="edge11" class="edge">
<title>MatMul (op#6)&#45;&gt;Add (op#7)</title>
<path fill="none" stroke="black" d="M571.66,-1727.7C575.19,-1719.73 579.46,-1710.1 583.37,-1701.26"/>
<polygon fill="black" stroke="black" points="586.58,-1702.67 587.43,-1692.1 580.18,-1699.83 586.58,-1702.67"/>
</g>
<!-- LayerNormalization (op#26) -->
<g id="node28" class="node">
<title>LayerNormalization (op#26)</title>
<g id="a_node28"><a xlink:href="javascript:alert('Inputs:\n\tinput0 /attention/output/Add_output_0\n\tinput1 attention.output.LayerNorm.weight\n\tinput2 attention.output.LayerNorm.bias\nOutputs: \n\toutput0 /attention/output/LayerNorm/LayerNormalization_output_0')" xlink:title="LayerNormalization (op#26)">
<polygon fill="#0f9d58" stroke="#0f9d58" points="886.5,-828 665.5,-828 665.5,-792 886.5,-792 886.5,-828"/>
<text text-anchor="middle" x="776" y="-806.3" font-family="Times,serif" font-size="14.00" fill="#ffffff">LayerNormalization (op#26)</text>
</a>
</g>
</g>
<!-- Add (op#25)&#45;&gt;LayerNormalization (op#26) -->
<g id="edge30" class="edge">
<title>Add (op#25)&#45;&gt;LayerNormalization (op#26)</title>
<path fill="none" stroke="black" d="M776,-863.7C776,-855.98 776,-846.71 776,-838.11"/>
<polygon fill="black" stroke="black" points="779.5,-838.1 776,-828.1 772.5,-838.1 779.5,-838.1"/>
</g>
<!-- Transpose (op#13) -->
<g id="node18" class="node">
<title>Transpose (op#13)</title>
<g id="a_node18"><a xlink:href="javascript:alert('Inputs:\n\tinput0 /attention/self/Reshape_2_output_0\nOutputs: \n\toutput0 /attention/self/Transpose_1_output_0')" xlink:title="Transpose (op#13)">
<polygon fill="#0f9d58" stroke="#0f9d58" points="249,-1548 97,-1548 97,-1512 249,-1512 249,-1548"/>
<text text-anchor="middle" x="173" y="-1526.3" font-family="Times,serif" font-size="14.00" fill="#ffffff">Transpose (op#13)</text>
</a>
</g>
</g>
<!-- Reshape (op#12)&#45;&gt;Transpose (op#13) -->
<g id="edge17" class="edge">
<title>Reshape (op#12)&#45;&gt;Transpose (op#13)</title>
<path fill="none" stroke="black" d="M173,-1583.7C173,-1575.98 173,-1566.71 173,-1558.11"/>
<polygon fill="black" stroke="black" points="176.5,-1558.1 173,-1548.1 169.5,-1558.1 176.5,-1558.1"/>
</g>
<!-- Reshape (op#5) -->
<g id="node9" class="node">
<title>Reshape (op#5)</title>
<g id="a_node9"><a xlink:href="javascript:alert('Inputs:\n\tinput0 /attention/self/key/Add_output_0\n\tinput1 /attention/self/Constant_output_0\nOutputs: \n\toutput0 /attention/self/Reshape_output_0')" xlink:title="Reshape (op#5)">
<polygon fill="#0f9d58" stroke="#0f9d58" points="408.5,-1620 277.5,-1620 277.5,-1584 408.5,-1584 408.5,-1620"/>
<text text-anchor="middle" x="343" y="-1598.3" font-family="Times,serif" font-size="14.00" fill="#ffffff">Reshape (op#5)</text>
</a>
</g>
</g>
<!-- Add (op#3)&#45;&gt;Reshape (op#5) -->
<g id="edge8" class="edge">
<title>Add (op#3)&#45;&gt;Reshape (op#5)</title>
<path fill="none" stroke="black" d="M330.96,-1655.7C332.72,-1647.98 334.84,-1638.71 336.8,-1630.11"/>
<polygon fill="black" stroke="black" points="340.27,-1630.63 339.09,-1620.1 333.45,-1629.07 340.27,-1630.63"/>
</g>
<!-- Transpose (op#14) -->
<g id="node11" class="node">
<title>Transpose (op#14)</title>
<g id="a_node11"><a xlink:href="javascript:alert('Inputs:\n\tinput0 /attention/self/Reshape_output_0\nOutputs: \n\toutput0 /attention/self/Transpose_2_output_0')" xlink:title="Transpose (op#14)">
<polygon fill="#0f9d58" stroke="#0f9d58" points="419,-1548 267,-1548 267,-1512 419,-1512 419,-1548"/>
<text text-anchor="middle" x="343" y="-1526.3" font-family="Times,serif" font-size="14.00" fill="#ffffff">Transpose (op#14)</text>
</a>
</g>
</g>
<!-- Reshape (op#5)&#45;&gt;Transpose (op#14) -->
<g id="edge10" class="edge">
<title>Reshape (op#5)&#45;&gt;Transpose (op#14)</title>
<path fill="none" stroke="black" d="M343,-1583.7C343,-1575.98 343,-1566.71 343,-1558.11"/>
<polygon fill="black" stroke="black" points="346.5,-1558.1 343,-1548.1 339.5,-1558.1 346.5,-1558.1"/>
</g>
<!-- Constant (op#4) -->
<g id="node10" class="node">
<title>Constant (op#4)</title>
<g id="a_node10"><a xlink:href="javascript:alert('Inputs:\nOutputs: \n\toutput0 /attention/self/Constant_output_0')" xlink:title="Constant (op#4)">
<polygon fill="#0f9d58" stroke="#0f9d58" points="528,-1692 394,-1692 394,-1656 528,-1656 528,-1692"/>
<text text-anchor="middle" x="461" y="-1670.3" font-family="Times,serif" font-size="14.00" fill="#ffffff">Constant (op#4)</text>
</a>
</g>
</g>
<!-- Constant (op#4)&#45;&gt;Reshape (op#5) -->
<g id="edge9" class="edge">
<title>Constant (op#4)&#45;&gt;Reshape (op#5)</title>
<path fill="none" stroke="black" d="M432.13,-1655.88C416.71,-1646.72 397.52,-1635.34 380.9,-1625.48"/>
<polygon fill="black" stroke="black" points="382.36,-1622.28 371.98,-1620.19 378.79,-1628.3 382.36,-1622.28"/>
</g>
<!-- MatMul (op#15) -->
<g id="node19" class="node">
<title>MatMul (op#15)</title>
<g id="a_node19"><a xlink:href="javascript:alert('Inputs:\n\tinput0 /attention/self/Transpose_1_output_0\n\tinput1 /attention/self/Transpose_2_output_0\nOutputs: \n\toutput0 /attention/self/MatMul_output_0')" xlink:title="MatMul (op#15)">
<polygon fill="#0f9d58" stroke="#0f9d58" points="396.5,-1476 261.5,-1476 261.5,-1440 396.5,-1440 396.5,-1476"/>
<text text-anchor="middle" x="329" y="-1454.3" font-family="Times,serif" font-size="14.00" fill="#ffffff">MatMul (op#15)</text>
</a>
</g>
</g>
<!-- Transpose (op#14)&#45;&gt;MatMul (op#15) -->
<g id="edge19" class="edge">
<title>Transpose (op#14)&#45;&gt;MatMul (op#15)</title>
<path fill="none" stroke="black" d="M339.54,-1511.7C338,-1503.98 336.14,-1494.71 334.42,-1486.11"/>
<polygon fill="black" stroke="black" points="337.81,-1485.22 332.42,-1476.1 330.95,-1486.6 337.81,-1485.22"/>
</g>
<!-- Reshape (op#9) -->
<g id="node13" class="node">
<title>Reshape (op#9)</title>
<g id="a_node13"><a xlink:href="javascript:alert('Inputs:\n\tinput0 /attention/self/value/Add_output_0\n\tinput1 /attention/self/Constant_1_output_0\nOutputs: \n\toutput0 /attention/self/Reshape_1_output_0')" xlink:title="Reshape (op#9)">
<polygon fill="#0f9d58" stroke="#0f9d58" points="674.5,-1620 543.5,-1620 543.5,-1584 674.5,-1584 674.5,-1620"/>
<text text-anchor="middle" x="609" y="-1598.3" font-family="Times,serif" font-size="14.00" fill="#ffffff">Reshape (op#9)</text>
</a>
</g>
</g>
<!-- Add (op#7)&#45;&gt;Reshape (op#9) -->
<g id="edge12" class="edge">
<title>Add (op#7)&#45;&gt;Reshape (op#9)</title>
<path fill="none" stroke="black" d="M598.46,-1655.7C600,-1647.98 601.86,-1638.71 603.58,-1630.11"/>
<polygon fill="black" stroke="black" points="607.05,-1630.6 605.58,-1620.1 600.19,-1629.22 607.05,-1630.6"/>
</g>
<!-- Transpose (op#10) -->
<g id="node15" class="node">
<title>Transpose (op#10)</title>
<g id="a_node15"><a xlink:href="javascript:alert('Inputs:\n\tinput0 /attention/self/Reshape_1_output_0\nOutputs: \n\toutput0 /attention/self/Transpose_output_0')" xlink:title="Transpose (op#10)">
<polygon fill="#0f9d58" stroke="#0f9d58" points="685,-1404 533,-1404 533,-1368 685,-1368 685,-1404"/>
<text text-anchor="middle" x="609" y="-1382.3" font-family="Times,serif" font-size="14.00" fill="#ffffff">Transpose (op#10)</text>
</a>
</g>
</g>
<!-- Reshape (op#9)&#45;&gt;Transpose (op#10) -->
<g id="edge14" class="edge">
<title>Reshape (op#9)&#45;&gt;Transpose (op#10)</title>
<path fill="none" stroke="black" d="M609,-1583.85C609,-1546.83 609,-1459.18 609,-1414.39"/>
<polygon fill="black" stroke="black" points="612.5,-1414.23 609,-1404.23 605.5,-1414.23 612.5,-1414.23"/>
</g>
<!-- Constant (op#8) -->
<g id="node14" class="node">
<title>Constant (op#8)</title>
<g id="a_node14"><a xlink:href="javascript:alert('Inputs:\nOutputs: \n\toutput0 /attention/self/Constant_1_output_0')" xlink:title="Constant (op#8)">
<polygon fill="#0f9d58" stroke="#0f9d58" points="796,-1692 662,-1692 662,-1656 796,-1656 796,-1692"/>
<text text-anchor="middle" x="729" y="-1670.3" font-family="Times,serif" font-size="14.00" fill="#ffffff">Constant (op#8)</text>
</a>
</g>
</g>
<!-- Constant (op#8)&#45;&gt;Reshape (op#9) -->
<g id="edge13" class="edge">
<title>Constant (op#8)&#45;&gt;Reshape (op#9)</title>
<path fill="none" stroke="black" d="M699.64,-1655.88C683.95,-1646.72 664.44,-1635.34 647.55,-1625.48"/>
<polygon fill="black" stroke="black" points="648.87,-1622.21 638.47,-1620.19 645.34,-1628.25 648.87,-1622.21"/>
</g>
<!-- MatMul (op#19) -->
<g id="node16" class="node">
<title>MatMul (op#19)</title>
<g id="a_node16"><a xlink:href="javascript:alert('Inputs:\n\tinput0 /attention/self/Softmax_output_0\n\tinput1 /attention/self/Transpose_output_0\nOutputs: \n\toutput0 /attention/self/MatMul_1_output_0')" xlink:title="MatMul (op#19)">
<polygon fill="#0f9d58" stroke="#0f9d58" points="625.5,-1260 490.5,-1260 490.5,-1224 625.5,-1224 625.5,-1260"/>
<text text-anchor="middle" x="558" y="-1238.3" font-family="Times,serif" font-size="14.00" fill="#ffffff">MatMul (op#19)</text>
</a>
</g>
</g>
<!-- Transpose (op#10)&#45;&gt;MatMul (op#19) -->
<g id="edge15" class="edge">
<title>Transpose (op#10)&#45;&gt;MatMul (op#19)</title>
<path fill="none" stroke="black" d="M602.85,-1367.87C594.08,-1343.46 577.91,-1298.43 567.57,-1269.64"/>
<polygon fill="black" stroke="black" points="570.85,-1268.42 564.17,-1260.19 564.26,-1270.78 570.85,-1268.42"/>
</g>
<!-- Transpose (op#20) -->
<g id="node23" class="node">
<title>Transpose (op#20)</title>
<g id="a_node23"><a xlink:href="javascript:alert('Inputs:\n\tinput0 /attention/self/MatMul_1_output_0\nOutputs: \n\toutput0 /attention/self/Transpose_3_output_0')" xlink:title="Transpose (op#20)">
<polygon fill="#0f9d58" stroke="#0f9d58" points="634,-1188 482,-1188 482,-1152 634,-1152 634,-1188"/>
<text text-anchor="middle" x="558" y="-1166.3" font-family="Times,serif" font-size="14.00" fill="#ffffff">Transpose (op#20)</text>
</a>
</g>
</g>
<!-- MatMul (op#19)&#45;&gt;Transpose (op#20) -->
<g id="edge24" class="edge">
<title>MatMul (op#19)&#45;&gt;Transpose (op#20)</title>
<path fill="none" stroke="black" d="M558,-1223.7C558,-1215.98 558,-1206.71 558,-1198.11"/>
<polygon fill="black" stroke="black" points="561.5,-1198.1 558,-1188.1 554.5,-1198.1 561.5,-1198.1"/>
</g>
<!-- Constant (op#11) -->
<g id="node17" class="node">
<title>Constant (op#11)</title>
<g id="a_node17"><a xlink:href="javascript:alert('Inputs:\nOutputs: \n\toutput0 /attention/self/Constant_2_output_0')" xlink:title="Constant (op#11)">
<polygon fill="#0f9d58" stroke="#0f9d58" points="259.5,-1692 116.5,-1692 116.5,-1656 259.5,-1656 259.5,-1692"/>
<text text-anchor="middle" x="188" y="-1670.3" font-family="Times,serif" font-size="14.00" fill="#ffffff">Constant (op#11)</text>
</a>
</g>
</g>
<!-- Constant (op#11)&#45;&gt;Reshape (op#12) -->
<g id="edge16" class="edge">
<title>Constant (op#11)&#45;&gt;Reshape (op#12)</title>
<path fill="none" stroke="black" d="M184.29,-1655.7C182.64,-1647.98 180.65,-1638.71 178.81,-1630.11"/>
<polygon fill="black" stroke="black" points="182.18,-1629.15 176.67,-1620.1 175.34,-1630.62 182.18,-1629.15"/>
</g>
<!-- Transpose (op#13)&#45;&gt;MatMul (op#15) -->
<g id="edge18" class="edge">
<title>Transpose (op#13)&#45;&gt;MatMul (op#15)</title>
<path fill="none" stroke="black" d="M211.16,-1511.88C232.39,-1502.35 259.01,-1490.41 281.57,-1480.28"/>
<polygon fill="black" stroke="black" points="283.27,-1483.36 290.96,-1476.07 280.41,-1476.97 283.27,-1483.36"/>
</g>
<!-- Div (op#17) -->
<g id="node20" class="node">
<title>Div (op#17)</title>
<g id="a_node20"><a xlink:href="javascript:alert('Inputs:\n\tinput0 /attention/self/MatMul_output_0\n\tinput1 /attention/self/Constant_3_output_0\nOutputs: \n\toutput0 /attention/self/Div_output_0')" xlink:title="Div (op#17)">
<polygon fill="#0f9d58" stroke="#0f9d58" points="514.5,-1404 411.5,-1404 411.5,-1368 514.5,-1368 514.5,-1404"/>
<text text-anchor="middle" x="463" y="-1382.3" font-family="Times,serif" font-size="14.00" fill="#ffffff">Div (op#17)</text>
</a>
</g>
</g>
<!-- MatMul (op#15)&#45;&gt;Div (op#17) -->
<g id="edge20" class="edge">
<title>MatMul (op#15)&#45;&gt;Div (op#17)</title>
<path fill="none" stroke="black" d="M361.78,-1439.88C379.63,-1430.55 401.9,-1418.92 421,-1408.94"/>
<polygon fill="black" stroke="black" points="422.85,-1411.92 430.09,-1404.19 419.61,-1405.72 422.85,-1411.92"/>
</g>
<!-- Softmax (op#18) -->
<g id="node22" class="node">
<title>Softmax (op#18)</title>
<g id="a_node22"><a xlink:href="javascript:alert('Inputs:\n\tinput0 /attention/self/Div_output_0\nOutputs: \n\toutput0 /attention/self/Softmax_output_0')" xlink:title="Softmax (op#18)">
<polygon fill="#0f9d58" stroke="#0f9d58" points="545,-1332 407,-1332 407,-1296 545,-1296 545,-1332"/>
<text text-anchor="middle" x="476" y="-1310.3" font-family="Times,serif" font-size="14.00" fill="#ffffff">Softmax (op#18)</text>
</a>
</g>
</g>
<!-- Div (op#17)&#45;&gt;Softmax (op#18) -->
<g id="edge22" class="edge">
<title>Div (op#17)&#45;&gt;Softmax (op#18)</title>
<path fill="none" stroke="black" d="M466.21,-1367.7C467.65,-1359.98 469.37,-1350.71 470.96,-1342.11"/>
<polygon fill="black" stroke="black" points="474.44,-1342.58 472.82,-1332.1 467.56,-1341.3 474.44,-1342.58"/>
</g>
<!-- Constant (op#16) -->
<g id="node21" class="node">
<title>Constant (op#16)</title>
<g id="a_node21"><a xlink:href="javascript:alert('Inputs:\nOutputs: \n\toutput0 /attention/self/Constant_3_output_0')" xlink:title="Constant (op#16)">
<polygon fill="#0f9d58" stroke="#0f9d58" points="557.5,-1476 414.5,-1476 414.5,-1440 557.5,-1440 557.5,-1476"/>
<text text-anchor="middle" x="486" y="-1454.3" font-family="Times,serif" font-size="14.00" fill="#ffffff">Constant (op#16)</text>
</a>
</g>
</g>
<!-- Constant (op#16)&#45;&gt;Div (op#17) -->
<g id="edge21" class="edge">
<title>Constant (op#16)&#45;&gt;Div (op#17)</title>
<path fill="none" stroke="black" d="M480.31,-1439.7C477.75,-1431.9 474.67,-1422.51 471.82,-1413.83"/>
<polygon fill="black" stroke="black" points="475.07,-1412.51 468.62,-1404.1 468.42,-1414.7 475.07,-1412.51"/>
</g>
<!-- Softmax (op#18)&#45;&gt;MatMul (op#19) -->
<g id="edge23" class="edge">
<title>Softmax (op#18)&#45;&gt;MatMul (op#19)</title>
<path fill="none" stroke="black" d="M496.27,-1295.7C506.5,-1286.97 519.06,-1276.24 530.18,-1266.75"/>
<polygon fill="black" stroke="black" points="532.63,-1269.26 537.96,-1260.1 528.09,-1263.94 532.63,-1269.26"/>
</g>
<!-- Reshape (op#22) -->
<g id="node24" class="node">
<title>Reshape (op#22)</title>
<g id="a_node24"><a xlink:href="javascript:alert('Inputs:\n\tinput0 /attention/self/Transpose_3_output_0\n\tinput1 /attention/self/Constant_4_output_0\nOutputs: \n\toutput0 /attention/self/Reshape_3_output_0')" xlink:title="Reshape (op#22)">
<polygon fill="#0f9d58" stroke="#0f9d58" points="794,-1116 654,-1116 654,-1080 794,-1080 794,-1116"/>
<text text-anchor="middle" x="724" y="-1094.3" font-family="Times,serif" font-size="14.00" fill="#ffffff">Reshape (op#22)</text>
</a>
</g>
</g>
<!-- Transpose (op#20)&#45;&gt;Reshape (op#22) -->
<g id="edge25" class="edge">
<title>Transpose (op#20)&#45;&gt;Reshape (op#22)</title>
<path fill="none" stroke="black" d="M598.61,-1151.88C621.4,-1142.26 650.03,-1130.19 674.17,-1120.01"/>
<polygon fill="black" stroke="black" points="675.67,-1123.18 683.52,-1116.07 672.95,-1116.73 675.67,-1123.18"/>
</g>
<!-- MatMul (op#23) -->
<g id="node26" class="node">
<title>MatMul (op#23)</title>
<g id="a_node26"><a xlink:href="javascript:alert('Inputs:\n\tinput0 /attention/self/Reshape_3_output_0\n\tinput1 onnx::MatMul_128\nOutputs: \n\toutput0 /attention/output/dense/MatMul_output_0')" xlink:title="MatMul (op#23)">
<polygon fill="#0f9d58" stroke="#0f9d58" points="793.5,-1044 658.5,-1044 658.5,-1008 793.5,-1008 793.5,-1044"/>
<text text-anchor="middle" x="726" y="-1022.3" font-family="Times,serif" font-size="14.00" fill="#ffffff">MatMul (op#23)</text>
</a>
</g>
</g>
<!-- Reshape (op#22)&#45;&gt;MatMul (op#23) -->
<g id="edge27" class="edge">
<title>Reshape (op#22)&#45;&gt;MatMul (op#23)</title>
<path fill="none" stroke="black" d="M724.49,-1079.7C724.71,-1071.98 724.98,-1062.71 725.23,-1054.11"/>
<polygon fill="black" stroke="black" points="728.72,-1054.2 725.51,-1044.1 721.73,-1054 728.72,-1054.2"/>
</g>
<!-- Constant (op#21) -->
<g id="node25" class="node">
<title>Constant (op#21)</title>
<g id="a_node25"><a xlink:href="javascript:alert('Inputs:\nOutputs: \n\toutput0 /attention/self/Constant_4_output_0')" xlink:title="Constant (op#21)">
<polygon fill="#0f9d58" stroke="#0f9d58" points="795.5,-1188 652.5,-1188 652.5,-1152 795.5,-1152 795.5,-1188"/>
<text text-anchor="middle" x="724" y="-1166.3" font-family="Times,serif" font-size="14.00" fill="#ffffff">Constant (op#21)</text>
</a>
</g>
</g>
<!-- Constant (op#21)&#45;&gt;Reshape (op#22) -->
<g id="edge26" class="edge">
<title>Constant (op#21)&#45;&gt;Reshape (op#22)</title>
<path fill="none" stroke="black" d="M724,-1151.7C724,-1143.98 724,-1134.71 724,-1126.11"/>
<polygon fill="black" stroke="black" points="727.5,-1126.1 724,-1116.1 720.5,-1126.1 727.5,-1126.1"/>
</g>
<!-- Add (op#24) -->
<g id="node27" class="node">
<title>Add (op#24)</title>
<g id="a_node27"><a xlink:href="javascript:alert('Inputs:\n\tinput0 attention.output.dense.bias\n\tinput1 /attention/output/dense/MatMul_output_0\nOutputs: \n\toutput0 /attention/output/dense/Add_output_0')" xlink:title="Add (op#24)">
<polygon fill="#0f9d58" stroke="#0f9d58" points="788.5,-972 681.5,-972 681.5,-936 788.5,-936 788.5,-972"/>
<text text-anchor="middle" x="735" y="-950.3" font-family="Times,serif" font-size="14.00" fill="#ffffff">Add (op#24)</text>
</a>
</g>
</g>
<!-- MatMul (op#23)&#45;&gt;Add (op#24) -->
<g id="edge28" class="edge">
<title>MatMul (op#23)&#45;&gt;Add (op#24)</title>
<path fill="none" stroke="black" d="M728.22,-1007.7C729.22,-999.98 730.41,-990.71 731.51,-982.11"/>
<polygon fill="black" stroke="black" points="735,-982.47 732.8,-972.1 728.05,-981.58 735,-982.47"/>
</g>
<!-- Add (op#24)&#45;&gt;Add (op#25) -->
<g id="edge29" class="edge">
<title>Add (op#24)&#45;&gt;Add (op#25)</title>
<path fill="none" stroke="black" d="M745.13,-935.7C749.85,-927.64 755.56,-917.89 760.78,-908.98"/>
<polygon fill="black" stroke="black" points="763.95,-910.5 765.98,-900.1 757.91,-906.96 763.95,-910.5"/>
</g>
<!-- MatMul (op#27) -->
<g id="node29" class="node">
<title>MatMul (op#27)</title>
<g id="a_node29"><a xlink:href="javascript:alert('Inputs:\n\tinput0 /attention/output/LayerNorm/LayerNormalization_output_0\n\tinput1 onnx::MatMul_129\nOutputs: \n\toutput0 /intermediate/dense/MatMul_output_0')" xlink:title="MatMul (op#27)">
<polygon fill="#0f9d58" stroke="#0f9d58" points="795.5,-756 660.5,-756 660.5,-720 795.5,-720 795.5,-756"/>
<text text-anchor="middle" x="728" y="-734.3" font-family="Times,serif" font-size="14.00" fill="#ffffff">MatMul (op#27)</text>
</a>
</g>
</g>
<!-- LayerNormalization (op#26)&#45;&gt;MatMul (op#27) -->
<g id="edge31" class="edge">
<title>LayerNormalization (op#26)&#45;&gt;MatMul (op#27)</title>
<path fill="none" stroke="black" d="M764.13,-791.7C758.5,-783.47 751.65,-773.48 745.43,-764.42"/>
<polygon fill="black" stroke="black" points="748.27,-762.37 739.73,-756.1 742.5,-766.33 748.27,-762.37"/>
</g>
<!-- Add (op#39) -->
<g id="node30" class="node">
<title>Add (op#39)</title>
<g id="a_node30"><a xlink:href="javascript:alert('Inputs:\n\tinput0 /output/dense/Add_output_0\n\tinput1 /attention/output/LayerNorm/LayerNormalization_output_0\nOutputs: \n\toutput0 /output/Add_output_0')" xlink:title="Add (op#39)">
<polygon fill="#0f9d58" stroke="#0f9d58" points="829.5,-108 722.5,-108 722.5,-72 829.5,-72 829.5,-108"/>
<text text-anchor="middle" x="776" y="-86.3" font-family="Times,serif" font-size="14.00" fill="#ffffff">Add (op#39)</text>
</a>
</g>
</g>
<!-- LayerNormalization (op#26)&#45;&gt;Add (op#39) -->
<g id="edge32" class="edge">
<title>LayerNormalization (op#26)&#45;&gt;Add (op#39)</title>
<path fill="none" stroke="black" d="M787,-791.94C793.08,-781.84 800.33,-768.59 805,-756 819.08,-718.08 824,-707.45 824,-667 824,-667 824,-667 824,-233 824,-190.87 804.8,-145.23 790.69,-117.37"/>
<polygon fill="black" stroke="black" points="793.68,-115.54 785.95,-108.29 787.47,-118.78 793.68,-115.54"/>
</g>
<!-- Add (op#28) -->
<g id="node31" class="node">
<title>Add (op#28)</title>
<g id="a_node31"><a xlink:href="javascript:alert('Inputs:\n\tinput0 intermediate.dense.bias\n\tinput1 /intermediate/dense/MatMul_output_0\nOutputs: \n\toutput0 /intermediate/dense/Add_output_0')" xlink:title="Add (op#28)">
<polygon fill="#0f9d58" stroke="#0f9d58" points="781.5,-684 674.5,-684 674.5,-648 781.5,-648 781.5,-684"/>
<text text-anchor="middle" x="728" y="-662.3" font-family="Times,serif" font-size="14.00" fill="#ffffff">Add (op#28)</text>
</a>
</g>
</g>
<!-- MatMul (op#27)&#45;&gt;Add (op#28) -->
<g id="edge33" class="edge">
<title>MatMul (op#27)&#45;&gt;Add (op#28)</title>
<path fill="none" stroke="black" d="M728,-719.7C728,-711.98 728,-702.71 728,-694.11"/>
<polygon fill="black" stroke="black" points="731.5,-694.1 728,-684.1 724.5,-694.1 731.5,-694.1"/>
</g>
<!-- LayerNormalization (op#40) -->
<g id="node42" class="node">
<title>LayerNormalization (op#40)</title>
<g id="a_node42"><a xlink:href="javascript:alert('Inputs:\n\tinput0 /output/Add_output_0\n\tinput1 output.LayerNorm.weight\n\tinput2 output.LayerNorm.bias\nOutputs: \n\toutput0 105')" xlink:title="LayerNormalization (op#40)">
<polygon fill="#0f9d58" stroke="#0f9d58" points="886.5,-36 665.5,-36 665.5,0 886.5,0 886.5,-36"/>
<text text-anchor="middle" x="776" y="-14.3" font-family="Times,serif" font-size="14.00" fill="#ffffff">LayerNormalization (op#40)</text>
</a>
</g>
</g>
<!-- Add (op#39)&#45;&gt;LayerNormalization (op#40) -->
<g id="edge46" class="edge">
<title>Add (op#39)&#45;&gt;LayerNormalization (op#40)</title>
<path fill="none" stroke="black" d="M776,-71.7C776,-63.98 776,-54.71 776,-46.11"/>
<polygon fill="black" stroke="black" points="779.5,-46.1 776,-36.1 772.5,-46.1 779.5,-46.1"/>
</g>
<!-- Div (op#30) -->
<g id="node32" class="node">
<title>Div (op#30)</title>
<g id="a_node32"><a xlink:href="javascript:alert('Inputs:\n\tinput0 /intermediate/dense/Add_output_0\n\tinput1 /intermediate/intermediate_act_fn/Constant_output_0\nOutputs: \n\toutput0 /intermediate/intermediate_act_fn/Div_output_0')" xlink:title="Div (op#30)">
<polygon fill="#0f9d58" stroke="#0f9d58" points="698.5,-612 595.5,-612 595.5,-576 698.5,-576 698.5,-612"/>
<text text-anchor="middle" x="647" y="-590.3" font-family="Times,serif" font-size="14.00" fill="#ffffff">Div (op#30)</text>
</a>
</g>
</g>
<!-- Add (op#28)&#45;&gt;Div (op#30) -->
<g id="edge34" class="edge">
<title>Add (op#28)&#45;&gt;Div (op#30)</title>
<path fill="none" stroke="black" d="M707.98,-647.7C697.87,-638.97 685.46,-628.24 674.48,-618.75"/>
<polygon fill="black" stroke="black" points="676.65,-615.99 666.79,-612.1 672.07,-621.29 676.65,-615.99"/>
</g>
<!-- Mul (op#34) -->
<g id="node33" class="node">
<title>Mul (op#34)</title>
<g id="a_node33"><a xlink:href="javascript:alert('Inputs:\n\tinput0 /intermediate/dense/Add_output_0\n\tinput1 /intermediate/intermediate_act_fn/Add_output_0\nOutputs: \n\toutput0 /intermediate/intermediate_act_fn/Mul_output_0')" xlink:title="Mul (op#34)">
<polygon fill="#0f9d58" stroke="#0f9d58" points="781.5,-396 674.5,-396 674.5,-360 781.5,-360 781.5,-396"/>
<text text-anchor="middle" x="728" y="-374.3" font-family="Times,serif" font-size="14.00" fill="#ffffff">Mul (op#34)</text>
</a>
</g>
</g>
<!-- Add (op#28)&#45;&gt;Mul (op#34) -->
<g id="edge35" class="edge">
<title>Add (op#28)&#45;&gt;Mul (op#34)</title>
<path fill="none" stroke="black" d="M728,-647.97C728,-600.29 728,-465.18 728,-406.63"/>
<polygon fill="black" stroke="black" points="731.5,-406.31 728,-396.31 724.5,-406.31 731.5,-406.31"/>
</g>
<!-- Erf (op#31) -->
<g id="node35" class="node">
<title>Erf (op#31)</title>
<g id="a_node35"><a xlink:href="javascript:alert('Inputs:\n\tinput0 /intermediate/intermediate_act_fn/Div_output_0\nOutputs: \n\toutput0 /intermediate/intermediate_act_fn/Erf_output_0')" xlink:title="Erf (op#31)">
<polygon fill="#0f9d58" stroke="#0f9d58" points="697.5,-540 596.5,-540 596.5,-504 697.5,-504 697.5,-540"/>
<text text-anchor="middle" x="647" y="-518.3" font-family="Times,serif" font-size="14.00" fill="#ffffff">Erf (op#31)</text>
</a>
</g>
</g>
<!-- Div (op#30)&#45;&gt;Erf (op#31) -->
<g id="edge37" class="edge">
<title>Div (op#30)&#45;&gt;Erf (op#31)</title>
<path fill="none" stroke="black" d="M647,-575.7C647,-567.98 647,-558.71 647,-550.11"/>
<polygon fill="black" stroke="black" points="650.5,-550.1 647,-540.1 643.5,-550.1 650.5,-550.1"/>
</g>
<!-- Mul (op#36) -->
<g id="node38" class="node">
<title>Mul (op#36)</title>
<g id="a_node38"><a xlink:href="javascript:alert('Inputs:\n\tinput0 /intermediate/intermediate_act_fn/Mul_output_0\n\tinput1 /intermediate/intermediate_act_fn/Constant_2_output_0\nOutputs: \n\toutput0 /intermediate/intermediate_act_fn/Mul_1_output_0')" xlink:title="Mul (op#36)">
<polygon fill="#0f9d58" stroke="#0f9d58" points="781.5,-324 674.5,-324 674.5,-288 781.5,-288 781.5,-324"/>
<text text-anchor="middle" x="728" y="-302.3" font-family="Times,serif" font-size="14.00" fill="#ffffff">Mul (op#36)</text>
</a>
</g>
</g>
<!-- Mul (op#34)&#45;&gt;Mul (op#36) -->
<g id="edge41" class="edge">
<title>Mul (op#34)&#45;&gt;Mul (op#36)</title>
<path fill="none" stroke="black" d="M728,-359.7C728,-351.98 728,-342.71 728,-334.11"/>
<polygon fill="black" stroke="black" points="731.5,-334.1 728,-324.1 724.5,-334.1 731.5,-334.1"/>
</g>
<!-- Constant (op#29) -->
<g id="node34" class="node">
<title>Constant (op#29)</title>
<g id="a_node34"><a xlink:href="javascript:alert('Inputs:\nOutputs: \n\toutput0 /intermediate/intermediate_act_fn/Constant_output_0')" xlink:title="Constant (op#29)">
<polygon fill="#0f9d58" stroke="#0f9d58" points="656.5,-684 513.5,-684 513.5,-648 656.5,-648 656.5,-684"/>
<text text-anchor="middle" x="585" y="-662.3" font-family="Times,serif" font-size="14.00" fill="#ffffff">Constant (op#29)</text>
</a>
</g>
</g>
<!-- Constant (op#29)&#45;&gt;Div (op#30) -->
<g id="edge36" class="edge">
<title>Constant (op#29)&#45;&gt;Div (op#30)</title>
<path fill="none" stroke="black" d="M600.33,-647.7C607.76,-639.3 616.82,-629.07 624.98,-619.86"/>
<polygon fill="black" stroke="black" points="627.84,-621.91 631.85,-612.1 622.6,-617.27 627.84,-621.91"/>
</g>
<!-- Add (op#33) -->
<g id="node36" class="node">
<title>Add (op#33)</title>
<g id="a_node36"><a xlink:href="javascript:alert('Inputs:\n\tinput0 /intermediate/intermediate_act_fn/Erf_output_0\n\tinput1 /intermediate/intermediate_act_fn/Constant_1_output_0\nOutputs: \n\toutput0 /intermediate/intermediate_act_fn/Add_output_0')" xlink:title="Add (op#33)">
<polygon fill="#0f9d58" stroke="#0f9d58" points="699.5,-468 592.5,-468 592.5,-432 699.5,-432 699.5,-468"/>
<text text-anchor="middle" x="646" y="-446.3" font-family="Times,serif" font-size="14.00" fill="#ffffff">Add (op#33)</text>
</a>
</g>
</g>
<!-- Erf (op#31)&#45;&gt;Add (op#33) -->
<g id="edge38" class="edge">
<title>Erf (op#31)&#45;&gt;Add (op#33)</title>
<path fill="none" stroke="black" d="M646.75,-503.7C646.64,-495.98 646.51,-486.71 646.39,-478.11"/>
<polygon fill="black" stroke="black" points="649.89,-478.05 646.24,-468.1 642.89,-478.15 649.89,-478.05"/>
</g>
<!-- Add (op#33)&#45;&gt;Mul (op#34) -->
<g id="edge40" class="edge">
<title>Add (op#33)&#45;&gt;Mul (op#34)</title>
<path fill="none" stroke="black" d="M666.27,-431.7C676.5,-422.97 689.06,-412.24 700.18,-402.75"/>
<polygon fill="black" stroke="black" points="702.63,-405.26 707.96,-396.1 698.09,-399.94 702.63,-405.26"/>
</g>
<!-- Constant (op#32) -->
<g id="node37" class="node">
<title>Constant (op#32)</title>
<g id="a_node37"><a xlink:href="javascript:alert('Inputs:\nOutputs: \n\toutput0 /intermediate/intermediate_act_fn/Constant_1_output_0')" xlink:title="Constant (op#32)">
<polygon fill="#0f9d58" stroke="#0f9d58" points="578.5,-540 435.5,-540 435.5,-504 578.5,-504 578.5,-540"/>
<text text-anchor="middle" x="507" y="-518.3" font-family="Times,serif" font-size="14.00" fill="#ffffff">Constant (op#32)</text>
</a>
</g>
</g>
<!-- Constant (op#32)&#45;&gt;Add (op#33) -->
<g id="edge39" class="edge">
<title>Constant (op#32)&#45;&gt;Add (op#33)</title>
<path fill="none" stroke="black" d="M541,-503.88C559.6,-494.51 582.83,-482.81 602.71,-472.8"/>
<polygon fill="black" stroke="black" points="604.51,-475.81 611.87,-468.19 601.36,-469.56 604.51,-475.81"/>
</g>
<!-- MatMul (op#37) -->
<g id="node40" class="node">
<title>MatMul (op#37)</title>
<g id="a_node40"><a xlink:href="javascript:alert('Inputs:\n\tinput0 /intermediate/intermediate_act_fn/Mul_1_output_0\n\tinput1 onnx::MatMul_130\nOutputs: \n\toutput0 /output/dense/MatMul_output_0')" xlink:title="MatMul (op#37)">
<polygon fill="#0f9d58" stroke="#0f9d58" points="795.5,-252 660.5,-252 660.5,-216 795.5,-216 795.5,-252"/>
<text text-anchor="middle" x="728" y="-230.3" font-family="Times,serif" font-size="14.00" fill="#ffffff">MatMul (op#37)</text>
</a>
</g>
</g>
<!-- Mul (op#36)&#45;&gt;MatMul (op#37) -->
<g id="edge43" class="edge">
<title>Mul (op#36)&#45;&gt;MatMul (op#37)</title>
<path fill="none" stroke="black" d="M728,-287.7C728,-279.98 728,-270.71 728,-262.11"/>
<polygon fill="black" stroke="black" points="731.5,-262.1 728,-252.1 724.5,-262.1 731.5,-262.1"/>
</g>
<!-- Constant (op#35) -->
<g id="node39" class="node">
<title>Constant (op#35)</title>
<g id="a_node39"><a xlink:href="javascript:alert('Inputs:\nOutputs: \n\toutput0 /intermediate/intermediate_act_fn/Constant_2_output_0')" xlink:title="Constant (op#35)">
<polygon fill="#0f9d58" stroke="#0f9d58" points="656.5,-396 513.5,-396 513.5,-360 656.5,-360 656.5,-396"/>
<text text-anchor="middle" x="585" y="-374.3" font-family="Times,serif" font-size="14.00" fill="#ffffff">Constant (op#35)</text>
</a>
</g>
</g>
<!-- Constant (op#35)&#45;&gt;Mul (op#36) -->
<g id="edge42" class="edge">
<title>Constant (op#35)&#45;&gt;Mul (op#36)</title>
<path fill="none" stroke="black" d="M619.98,-359.88C639.2,-350.47 663.23,-338.71 683.74,-328.67"/>
<polygon fill="black" stroke="black" points="685.44,-331.73 692.88,-324.19 682.36,-325.44 685.44,-331.73"/>
</g>
<!-- Add (op#38) -->
<g id="node41" class="node">
<title>Add (op#38)</title>
<g id="a_node41"><a xlink:href="javascript:alert('Inputs:\n\tinput0 output.dense.bias\n\tinput1 /output/dense/MatMul_output_0\nOutputs: \n\toutput0 /output/dense/Add_output_0')" xlink:title="Add (op#38)">
<polygon fill="#0f9d58" stroke="#0f9d58" points="788.5,-180 681.5,-180 681.5,-144 788.5,-144 788.5,-180"/>
<text text-anchor="middle" x="735" y="-158.3" font-family="Times,serif" font-size="14.00" fill="#ffffff">Add (op#38)</text>
</a>
</g>
</g>
<!-- MatMul (op#37)&#45;&gt;Add (op#38) -->
<g id="edge44" class="edge">
<title>MatMul (op#37)&#45;&gt;Add (op#38)</title>
<path fill="none" stroke="black" d="M729.73,-215.7C730.5,-207.98 731.43,-198.71 732.29,-190.11"/>
<polygon fill="black" stroke="black" points="735.78,-190.4 733.29,-180.1 728.81,-189.71 735.78,-190.4"/>
</g>
<!-- Add (op#38)&#45;&gt;Add (op#39) -->
<g id="edge45" class="edge">
<title>Add (op#38)&#45;&gt;Add (op#39)</title>
<path fill="none" stroke="black" d="M745.13,-143.7C749.85,-135.64 755.56,-125.89 760.78,-116.98"/>
<polygon fill="black" stroke="black" points="763.95,-118.5 765.98,-108.1 757.91,-114.96 763.95,-118.5"/>
</g>
</g>
</svg>
