<?xml version="1.0" encoding="UTF-8" standalone="no"?>
<!DOCTYPE svg PUBLIC "-//W3C//DTD SVG 1.1//EN"
 "http://www.w3.org/Graphics/SVG/1.1/DTD/svg11.dtd">
<!-- Generated by graphviz version 2.43.0 (0)
 -->
<!-- Title: main_graph Pages: 1 -->
<svg width="696pt" height="1844pt"
 viewBox="0.00 0.00 695.57 1844.00" xmlns="http://www.w3.org/2000/svg" xmlns:xlink="http://www.w3.org/1999/xlink">
<g id="graph0" class="graph" transform="scale(1 1) rotate(0) translate(4 1840)">
<title>main_graph</title>
<polygon fill="white" stroke="transparent" points="-4,4 -4,-1840 691.57,-1840 691.57,4 -4,4"/>
<!-- MatMul (op#0) -->
<g id="node1" class="node">
<title>MatMul (op#0)</title>
<g id="a_node1"><a xlink:href="javascript:alert('Inputs:\n\tinput0 onnx::MatMul_0\n\tinput1 onnx::MatMul_106\nOutputs: \n\toutput0 /attention/self/query/MatMul_output_0')" xlink:title="MatMul (op#0)">
<polygon fill="#0f9d58" stroke="#0f9d58" points="277.07,-1764 151.07,-1764 151.07,-1728 277.07,-1728 277.07,-1764"/>
<text text-anchor="middle" x="214.07" y="-1742.3" font-family="Times,serif" font-size="14.00" fill="#ffffff">MatMul (op#0)</text>
</a>
</g>
</g>
<!-- Add (op#1) -->
<g id="node2" class="node">
<title>Add (op#1)</title>
<g id="a_node2"><a xlink:href="javascript:alert('Inputs:\n\tinput0 attention.self.query.bias\n\tinput1 /attention/self/query/MatMul_output_0\nOutputs: \n\toutput0 /attention/self/query/Add_output_0')" xlink:title="Add (op#1)">
<polygon fill="#0f9d58" stroke="#0f9d58" points="258.07,-1692 160.07,-1692 160.07,-1656 258.07,-1656 258.07,-1692"/>
<text text-anchor="middle" x="209.07" y="-1670.3" font-family="Times,serif" font-size="14.00" fill="#ffffff">Add (op#1)</text>
</a>
</g>
</g>
<!-- MatMul (op#0)&#45;&gt;Add (op#1) -->
<g id="edge1" class="edge">
<title>MatMul (op#0)&#45;&gt;Add (op#1)</title>
<path fill="none" stroke="black" d="M212.84,-1727.7C212.29,-1719.98 211.63,-1710.71 211.01,-1702.11"/>
<polygon fill="black" stroke="black" points="214.5,-1701.83 210.3,-1692.1 207.52,-1702.33 214.5,-1701.83"/>
</g>
<!-- Reshape (op#12) -->
<g id="node7" class="node">
<title>Reshape (op#12)</title>
<g id="a_node7"><a xlink:href="javascript:alert('Inputs:\n\tinput0 /attention/self/query/Add_output_0\n\tinput1 /attention/self/Constant_2_output_0\nOutputs: \n\toutput0 /attention/self/Reshape_2_output_0')" xlink:title="Reshape (op#12)">
<polygon fill="#0f9d58" stroke="#0f9d58" points="232.07,-1620 92.07,-1620 92.07,-1584 232.07,-1584 232.07,-1620"/>
<text text-anchor="middle" x="162.07" y="-1598.3" font-family="Times,serif" font-size="14.00" fill="#ffffff">Reshape (op#12)</text>
</a>
</g>
</g>
<!-- Add (op#1)&#45;&gt;Reshape (op#12) -->
<g id="edge6" class="edge">
<title>Add (op#1)&#45;&gt;Reshape (op#12)</title>
<path fill="none" stroke="black" d="M197.46,-1655.7C191.94,-1647.47 185.23,-1637.48 179.14,-1628.42"/>
<polygon fill="black" stroke="black" points="182.04,-1626.46 173.56,-1620.1 176.23,-1630.36 182.04,-1626.46"/>
</g>
<!-- onnx::MatMul_0 -->
<g id="node3" class="node">
<title>onnx::MatMul_0</title>
<polygon fill="none" stroke="black" points="527.07,-1810.54 527.07,-1825.46 472.6,-1836 395.55,-1836 341.07,-1825.46 341.07,-1810.54 395.55,-1800 472.6,-1800 527.07,-1810.54"/>
<text text-anchor="middle" x="434.07" y="-1814.3" font-family="Times,serif" font-size="14.00">onnx::MatMul_0</text>
</g>
<!-- onnx::MatMul_0&#45;&gt;MatMul (op#0) -->
<g id="edge2" class="edge">
<title>onnx::MatMul_0&#45;&gt;MatMul (op#0)</title>
<path fill="none" stroke="black" d="M386.07,-1801.72C354.17,-1791.58 311.95,-1778.14 277.32,-1767.12"/>
<polygon fill="black" stroke="black" points="278.36,-1763.78 267.77,-1764.09 276.24,-1770.45 278.36,-1763.78"/>
</g>
<!-- MatMul (op#2) -->
<g id="node4" class="node">
<title>MatMul (op#2)</title>
<g id="a_node4"><a xlink:href="javascript:alert('Inputs:\n\tinput0 onnx::MatMul_0\n\tinput1 onnx::MatMul_107\nOutputs: \n\toutput0 /attention/self/key/MatMul_output_0')" xlink:title="MatMul (op#2)">
<polygon fill="#0f9d58" stroke="#0f9d58" points="423.07,-1764 297.07,-1764 297.07,-1728 423.07,-1728 423.07,-1764"/>
<text text-anchor="middle" x="360.07" y="-1742.3" font-family="Times,serif" font-size="14.00" fill="#ffffff">MatMul (op#2)</text>
</a>
</g>
</g>
<!-- onnx::MatMul_0&#45;&gt;MatMul (op#2) -->
<g id="edge3" class="edge">
<title>onnx::MatMul_0&#45;&gt;MatMul (op#2)</title>
<path fill="none" stroke="black" d="M415.78,-1799.7C406.64,-1791.05 395.43,-1780.45 385.47,-1771.03"/>
<polygon fill="black" stroke="black" points="387.83,-1768.43 378.16,-1764.1 383.02,-1773.52 387.83,-1768.43"/>
</g>
<!-- MatMul (op#6) -->
<g id="node5" class="node">
<title>MatMul (op#6)</title>
<g id="a_node5"><a xlink:href="javascript:alert('Inputs:\n\tinput0 onnx::MatMul_0\n\tinput1 onnx::MatMul_113\nOutputs: \n\toutput0 /attention/self/value/MatMul_output_0')" xlink:title="MatMul (op#6)">
<polygon fill="#0f9d58" stroke="#0f9d58" points="568.07,-1764 442.07,-1764 442.07,-1728 568.07,-1728 568.07,-1764"/>
<text text-anchor="middle" x="505.07" y="-1742.3" font-family="Times,serif" font-size="14.00" fill="#ffffff">MatMul (op#6)</text>
</a>
</g>
</g>
<!-- onnx::MatMul_0&#45;&gt;MatMul (op#6) -->
<g id="edge4" class="edge">
<title>onnx::MatMul_0&#45;&gt;MatMul (op#6)</title>
<path fill="none" stroke="black" d="M451.62,-1799.7C460.31,-1791.14 470.94,-1780.66 480.42,-1771.3"/>
<polygon fill="black" stroke="black" points="483.06,-1773.62 487.73,-1764.1 478.15,-1768.63 483.06,-1773.62"/>
</g>
<!-- Add (op#25) -->
<g id="node6" class="node">
<title>Add (op#25)</title>
<g id="a_node6"><a xlink:href="javascript:alert('Inputs:\n\tinput0 /attention/output/dense/Add_output_0\n\tinput1 onnx::MatMul_0\nOutputs: \n\toutput0 /attention/output/Add_output_0')" xlink:title="Add (op#25)">
<polygon fill="#0f9d58" stroke="#0f9d58" points="630.57,-900 523.57,-900 523.57,-864 630.57,-864 630.57,-900"/>
<text text-anchor="middle" x="577.07" y="-878.3" font-family="Times,serif" font-size="14.00" fill="#ffffff">Add (op#25)</text>
</a>
</g>
</g>
<!-- onnx::MatMul_0&#45;&gt;Add (op#25) -->
<g id="edge5" class="edge">
<title>onnx::MatMul_0&#45;&gt;Add (op#25)</title>
<path fill="none" stroke="black" d="M496.23,-1804.45C523.45,-1796.48 554.29,-1783.8 577.07,-1764 610.99,-1734.52 625.07,-1719.94 625.07,-1675 625.07,-1675 625.07,-1675 625.07,-1025 625.07,-982.87 605.87,-937.23 591.76,-909.37"/>
<polygon fill="black" stroke="black" points="594.75,-907.54 587.02,-900.29 588.55,-910.78 594.75,-907.54"/>
</g>
<!-- Add (op#3) -->
<g id="node8" class="node">
<title>Add (op#3)</title>
<g id="a_node8"><a xlink:href="javascript:alert('Inputs:\n\tinput0 attention.self.key.bias\n\tinput1 /attention/self/key/MatMul_output_0\nOutputs: \n\toutput0 /attention/self/key/Add_output_0')" xlink:title="Add (op#3)">
<polygon fill="#0f9d58" stroke="#0f9d58" points="408.07,-1692 310.07,-1692 310.07,-1656 408.07,-1656 408.07,-1692"/>
<text text-anchor="middle" x="359.07" y="-1670.3" font-family="Times,serif" font-size="14.00" fill="#ffffff">Add (op#3)</text>
</a>
</g>
</g>
<!-- MatMul (op#2)&#45;&gt;Add (op#3) -->
<g id="edge7" class="edge">
<title>MatMul (op#2)&#45;&gt;Add (op#3)</title>
<path fill="none" stroke="black" d="M359.83,-1727.7C359.72,-1719.98 359.58,-1710.71 359.46,-1702.11"/>
<polygon fill="black" stroke="black" points="362.96,-1702.05 359.32,-1692.1 355.96,-1702.15 362.96,-1702.05"/>
</g>
<!-- Add (op#7) -->
<g id="node11" class="node">
<title>Add (op#7)</title>
<g id="a_node11"><a xlink:href="javascript:alert('Inputs:\n\tinput0 attention.self.value.bias\n\tinput1 /attention/self/value/MatMul_output_0\nOutputs: \n\toutput0 /attention/self/value/Add_output_0')" xlink:title="Add (op#7)">
<polygon fill="#0f9d58" stroke="#0f9d58" points="554.07,-1692 456.07,-1692 456.07,-1656 554.07,-1656 554.07,-1692"/>
<text text-anchor="middle" x="505.07" y="-1670.3" font-family="Times,serif" font-size="14.00" fill="#ffffff">Add (op#7)</text>
</a>
</g>
</g>
<!-- MatMul (op#6)&#45;&gt;Add (op#7) -->
<g id="edge10" class="edge">
<title>MatMul (op#6)&#45;&gt;Add (op#7)</title>
<path fill="none" stroke="black" d="M505.07,-1727.7C505.07,-1719.98 505.07,-1710.71 505.07,-1702.11"/>
<polygon fill="black" stroke="black" points="508.57,-1702.1 505.07,-1692.1 501.57,-1702.1 508.57,-1702.1"/>
</g>
<!-- LayerNormalization (op#26) -->
<g id="node23" class="node">
<title>LayerNormalization (op#26)</title>
<g id="a_node23"><a xlink:href="javascript:alert('Inputs:\n\tinput0 /attention/output/Add_output_0\n\tinput1 attention.output.LayerNorm.weight\n\tinput2 attention.output.LayerNorm.bias\nOutputs: \n\toutput0 /attention/output/LayerNorm/LayerNormalization_output_0')" xlink:title="LayerNormalization (op#26)">
<polygon fill="#0f9d58" stroke="#0f9d58" points="687.57,-828 466.57,-828 466.57,-792 687.57,-792 687.57,-828"/>
<text text-anchor="middle" x="577.07" y="-806.3" font-family="Times,serif" font-size="14.00" fill="#ffffff">LayerNormalization (op#26)</text>
</a>
</g>
</g>
<!-- Add (op#25)&#45;&gt;LayerNormalization (op#26) -->
<g id="edge25" class="edge">
<title>Add (op#25)&#45;&gt;LayerNormalization (op#26)</title>
<path fill="none" stroke="black" d="M577.07,-863.7C577.07,-855.98 577.07,-846.71 577.07,-838.11"/>
<polygon fill="black" stroke="black" points="580.57,-838.1 577.07,-828.1 573.57,-838.1 580.57,-838.1"/>
</g>
<!-- Transpose (op#13) -->
<g id="node15" class="node">
<title>Transpose (op#13)</title>
<g id="a_node15"><a xlink:href="javascript:alert('Inputs:\n\tinput0 /attention/self/Reshape_2_output_0\nOutputs: \n\toutput0 /attention/self/Transpose_1_output_0')" xlink:title="Transpose (op#13)">
<polygon fill="#f0f0f0" stroke="#f0f0f0" points="228.22,-1530 171.15,-1548 57,-1548 -0.07,-1530 57,-1512 171.15,-1512 228.22,-1530"/>
<text text-anchor="middle" x="114.07" y="-1526.3" font-family="Times,serif" font-size="14.00" fill="#000000">Transpose (op#13)</text>
</a>
</g>
</g>
<!-- Reshape (op#12)&#45;&gt;Transpose (op#13) -->
<g id="edge14" class="edge">
<title>Reshape (op#12)&#45;&gt;Transpose (op#13)</title>
<path fill="none" stroke="black" d="M150.21,-1583.7C144.57,-1575.47 137.72,-1565.48 131.51,-1556.42"/>
<polygon fill="black" stroke="black" points="134.34,-1554.37 125.8,-1548.1 128.57,-1558.33 134.34,-1554.37"/>
</g>
<!-- Reshape (op#5) -->
<g id="node9" class="node">
<title>Reshape (op#5)</title>
<g id="a_node9"><a xlink:href="javascript:alert('Inputs:\n\tinput0 /attention/self/key/Add_output_0\n\tinput1 /attention/self/Constant_output_0\nOutputs: \n\toutput0 /attention/self/Reshape_output_0')" xlink:title="Reshape (op#5)">
<polygon fill="#0f9d58" stroke="#0f9d58" points="423.57,-1620 292.57,-1620 292.57,-1584 423.57,-1584 423.57,-1620"/>
<text text-anchor="middle" x="358.07" y="-1598.3" font-family="Times,serif" font-size="14.00" fill="#ffffff">Reshape (op#5)</text>
</a>
</g>
</g>
<!-- Add (op#3)&#45;&gt;Reshape (op#5) -->
<g id="edge8" class="edge">
<title>Add (op#3)&#45;&gt;Reshape (op#5)</title>
<path fill="none" stroke="black" d="M358.83,-1655.7C358.72,-1647.98 358.58,-1638.71 358.46,-1630.11"/>
<polygon fill="black" stroke="black" points="361.96,-1630.05 358.32,-1620.1 354.96,-1630.15 361.96,-1630.05"/>
</g>
<!-- Transpose (op#14) -->
<g id="node10" class="node">
<title>Transpose (op#14)</title>
<g id="a_node10"><a xlink:href="javascript:alert('Inputs:\n\tinput0 /attention/self/Reshape_output_0\nOutputs: \n\toutput0 /attention/self/Transpose_2_output_0')" xlink:title="Transpose (op#14)">
<polygon fill="#f0f0f0" stroke="#f0f0f0" points="474.22,-1530 417.15,-1548 303,-1548 245.93,-1530 303,-1512 417.15,-1512 474.22,-1530"/>
<text text-anchor="middle" x="360.07" y="-1526.3" font-family="Times,serif" font-size="14.00" fill="#000000">Transpose (op#14)</text>
</a>
</g>
</g>
<!-- Reshape (op#5)&#45;&gt;Transpose (op#14) -->
<g id="edge9" class="edge">
<title>Reshape (op#5)&#45;&gt;Transpose (op#14)</title>
<path fill="none" stroke="black" d="M358.57,-1583.7C358.79,-1575.98 359.05,-1566.71 359.3,-1558.11"/>
<polygon fill="black" stroke="black" points="362.8,-1558.2 359.59,-1548.1 355.8,-1558 362.8,-1558.2"/>
</g>
<!-- MatMul (op#15) -->
<g id="node16" class="node">
<title>MatMul (op#15)</title>
<g id="a_node16"><a xlink:href="javascript:alert('Inputs:\n\tinput0 /attention/self/Transpose_1_output_0\n\tinput1 /attention/self/Transpose_2_output_0\nOutputs: \n\toutput0 /attention/self/MatMul_output_0')" xlink:title="MatMul (op#15)">
<polygon fill="#0f9d58" stroke="#0f9d58" points="350.57,-1476 215.57,-1476 215.57,-1440 350.57,-1440 350.57,-1476"/>
<text text-anchor="middle" x="283.07" y="-1454.3" font-family="Times,serif" font-size="14.00" fill="#ffffff">MatMul (op#15)</text>
</a>
</g>
</g>
<!-- Transpose (op#14)&#45;&gt;MatMul (op#15) -->
<g id="edge16" class="edge">
<title>Transpose (op#14)&#45;&gt;MatMul (op#15)</title>
<path fill="none" stroke="black" d="M341.04,-1511.7C331.53,-1503.05 319.87,-1492.45 309.5,-1483.03"/>
<polygon fill="black" stroke="black" points="311.64,-1480.24 301.89,-1476.1 306.93,-1485.42 311.64,-1480.24"/>
</g>
<!-- Reshape (op#9) -->
<g id="node12" class="node">
<title>Reshape (op#9)</title>
<g id="a_node12"><a xlink:href="javascript:alert('Inputs:\n\tinput0 /attention/self/value/Add_output_0\n\tinput1 /attention/self/Constant_1_output_0\nOutputs: \n\toutput0 /attention/self/Reshape_1_output_0')" xlink:title="Reshape (op#9)">
<polygon fill="#0f9d58" stroke="#0f9d58" points="572.57,-1620 441.57,-1620 441.57,-1584 572.57,-1584 572.57,-1620"/>
<text text-anchor="middle" x="507.07" y="-1598.3" font-family="Times,serif" font-size="14.00" fill="#ffffff">Reshape (op#9)</text>
</a>
</g>
</g>
<!-- Add (op#7)&#45;&gt;Reshape (op#9) -->
<g id="edge11" class="edge">
<title>Add (op#7)&#45;&gt;Reshape (op#9)</title>
<path fill="none" stroke="black" d="M505.57,-1655.7C505.79,-1647.98 506.05,-1638.71 506.3,-1630.11"/>
<polygon fill="black" stroke="black" points="509.8,-1630.2 506.59,-1620.1 502.8,-1630 509.8,-1630.2"/>
</g>
<!-- Transpose (op#10) -->
<g id="node13" class="node">
<title>Transpose (op#10)</title>
<g id="a_node13"><a xlink:href="javascript:alert('Inputs:\n\tinput0 /attention/self/Reshape_1_output_0\nOutputs: \n\toutput0 /attention/self/Transpose_output_0')" xlink:title="Transpose (op#10)">
<polygon fill="#f0f0f0" stroke="#f0f0f0" points="597.22,-1458 540.15,-1476 426,-1476 368.93,-1458 426,-1440 540.15,-1440 597.22,-1458"/>
<text text-anchor="middle" x="483.07" y="-1454.3" font-family="Times,serif" font-size="14.00" fill="#000000">Transpose (op#10)</text>
</a>
</g>
</g>
<!-- Reshape (op#9)&#45;&gt;Transpose (op#10) -->
<g id="edge12" class="edge">
<title>Reshape (op#9)&#45;&gt;Transpose (op#10)</title>
<path fill="none" stroke="black" d="M504.18,-1583.87C500.09,-1559.67 492.57,-1515.21 487.7,-1486.39"/>
<polygon fill="black" stroke="black" points="491.1,-1485.47 485.98,-1476.19 484.2,-1486.63 491.1,-1485.47"/>
</g>
<!-- MatMul (op#19) -->
<g id="node14" class="node">
<title>MatMul (op#19)</title>
<g id="a_node14"><a xlink:href="javascript:alert('Inputs:\n\tinput0 /attention/self/Softmax_output_0\n\tinput1 /attention/self/Transpose_output_0\nOutputs: \n\toutput0 /attention/self/MatMul_1_output_0')" xlink:title="MatMul (op#19)">
<polygon fill="#0f9d58" stroke="#0f9d58" points="550.57,-1260 415.57,-1260 415.57,-1224 550.57,-1224 550.57,-1260"/>
<text text-anchor="middle" x="483.07" y="-1238.3" font-family="Times,serif" font-size="14.00" fill="#ffffff">MatMul (op#19)</text>
</a>
</g>
</g>
<!-- Transpose (op#10)&#45;&gt;MatMul (op#19) -->
<g id="edge13" class="edge">
<title>Transpose (op#10)&#45;&gt;MatMul (op#19)</title>
<path fill="none" stroke="black" d="M483.07,-1439.85C483.07,-1402.83 483.07,-1315.18 483.07,-1270.39"/>
<polygon fill="black" stroke="black" points="486.57,-1270.23 483.07,-1260.23 479.57,-1270.23 486.57,-1270.23"/>
</g>
<!-- Transpose (op#20) -->
<g id="node19" class="node">
<title>Transpose (op#20)</title>
<g id="a_node19"><a xlink:href="javascript:alert('Inputs:\n\tinput0 /attention/self/MatMul_1_output_0\nOutputs: \n\toutput0 /attention/self/Transpose_3_output_0')" xlink:title="Transpose (op#20)">
<polygon fill="#f0f0f0" stroke="#f0f0f0" points="597.22,-1170 540.15,-1188 426,-1188 368.93,-1170 426,-1152 540.15,-1152 597.22,-1170"/>
<text text-anchor="middle" x="483.07" y="-1166.3" font-family="Times,serif" font-size="14.00" fill="#000000">Transpose (op#20)</text>
</a>
</g>
</g>
<!-- MatMul (op#19)&#45;&gt;Transpose (op#20) -->
<g id="edge20" class="edge">
<title>MatMul (op#19)&#45;&gt;Transpose (op#20)</title>
<path fill="none" stroke="black" d="M483.07,-1223.7C483.07,-1215.98 483.07,-1206.71 483.07,-1198.11"/>
<polygon fill="black" stroke="black" points="486.57,-1198.1 483.07,-1188.1 479.57,-1198.1 486.57,-1198.1"/>
</g>
<!-- Transpose (op#13)&#45;&gt;MatMul (op#15) -->
<g id="edge15" class="edge">
<title>Transpose (op#13)&#45;&gt;MatMul (op#15)</title>
<path fill="none" stroke="black" d="M155.42,-1511.88C178.62,-1502.26 207.76,-1490.19 232.34,-1480.01"/>
<polygon fill="black" stroke="black" points="233.97,-1483.13 241.87,-1476.07 231.29,-1476.66 233.97,-1483.13"/>
</g>
<!-- Div (op#17) -->
<g id="node17" class="node">
<title>Div (op#17)</title>
<g id="a_node17"><a xlink:href="javascript:alert('Inputs:\n\tinput0 /attention/self/MatMul_output_0\n\tinput1 /attention/self/Constant_3_output_0\nOutputs: \n\toutput0 /attention/self/Div_output_0')" xlink:title="Div (op#17)">
<polygon fill="#0f9d58" stroke="#0f9d58" points="385.57,-1404 282.57,-1404 282.57,-1368 385.57,-1368 385.57,-1404"/>
<text text-anchor="middle" x="334.07" y="-1382.3" font-family="Times,serif" font-size="14.00" fill="#ffffff">Div (op#17)</text>
</a>
</g>
</g>
<!-- MatMul (op#15)&#45;&gt;Div (op#17) -->
<g id="edge17" class="edge">
<title>MatMul (op#15)&#45;&gt;Div (op#17)</title>
<path fill="none" stroke="black" d="M295.68,-1439.7C301.67,-1431.47 308.95,-1421.48 315.55,-1412.42"/>
<polygon fill="black" stroke="black" points="318.55,-1414.25 321.61,-1404.1 312.9,-1410.13 318.55,-1414.25"/>
</g>
<!-- Softmax (op#18) -->
<g id="node18" class="node">
<title>Softmax (op#18)</title>
<g id="a_node18"><a xlink:href="javascript:alert('Inputs:\n\tinput0 /attention/self/Div_output_0\nOutputs: \n\toutput0 /attention/self/Softmax_output_0')" xlink:title="Softmax (op#18)">
<polygon fill="#0f9d58" stroke="#0f9d58" points="429.07,-1332 291.07,-1332 291.07,-1296 429.07,-1296 429.07,-1332"/>
<text text-anchor="middle" x="360.07" y="-1310.3" font-family="Times,serif" font-size="14.00" fill="#ffffff">Softmax (op#18)</text>
</a>
</g>
</g>
<!-- Div (op#17)&#45;&gt;Softmax (op#18) -->
<g id="edge18" class="edge">
<title>Div (op#17)&#45;&gt;Softmax (op#18)</title>
<path fill="none" stroke="black" d="M340.5,-1367.7C343.43,-1359.81 346.96,-1350.3 350.21,-1341.55"/>
<polygon fill="black" stroke="black" points="353.52,-1342.7 353.72,-1332.1 346.96,-1340.26 353.52,-1342.7"/>
</g>
<!-- Softmax (op#18)&#45;&gt;MatMul (op#19) -->
<g id="edge19" class="edge">
<title>Softmax (op#18)&#45;&gt;MatMul (op#19)</title>
<path fill="none" stroke="black" d="M390.16,-1295.88C406.39,-1286.64 426.62,-1275.13 444.05,-1265.21"/>
<polygon fill="black" stroke="black" points="445.91,-1268.18 452.87,-1260.19 442.45,-1262.09 445.91,-1268.18"/>
</g>
<!-- Reshape (op#22) -->
<g id="node20" class="node">
<title>Reshape (op#22)</title>
<g id="a_node20"><a xlink:href="javascript:alert('Inputs:\n\tinput0 /attention/self/Transpose_3_output_0\n\tinput1 /attention/self/Constant_4_output_0\nOutputs: \n\toutput0 /attention/self/Reshape_3_output_0')" xlink:title="Reshape (op#22)">
<polygon fill="#0f9d58" stroke="#0f9d58" points="575.07,-1116 435.07,-1116 435.07,-1080 575.07,-1080 575.07,-1116"/>
<text text-anchor="middle" x="505.07" y="-1094.3" font-family="Times,serif" font-size="14.00" fill="#ffffff">Reshape (op#22)</text>
</a>
</g>
</g>
<!-- Transpose (op#20)&#45;&gt;Reshape (op#22) -->
<g id="edge21" class="edge">
<title>Transpose (op#20)&#45;&gt;Reshape (op#22)</title>
<path fill="none" stroke="black" d="M488.51,-1151.7C490.96,-1143.9 493.91,-1134.51 496.64,-1125.83"/>
<polygon fill="black" stroke="black" points="500.04,-1126.69 499.7,-1116.1 493.36,-1124.59 500.04,-1126.69"/>
</g>
<!-- MatMul (op#23) -->
<g id="node21" class="node">
<title>MatMul (op#23)</title>
<g id="a_node21"><a xlink:href="javascript:alert('Inputs:\n\tinput0 /attention/self/Reshape_3_output_0\n\tinput1 onnx::MatMul_128\nOutputs: \n\toutput0 /attention/output/dense/MatMul_output_0')" xlink:title="MatMul (op#23)">
<polygon fill="#0f9d58" stroke="#0f9d58" points="595.57,-1044 460.57,-1044 460.57,-1008 595.57,-1008 595.57,-1044"/>
<text text-anchor="middle" x="528.07" y="-1022.3" font-family="Times,serif" font-size="14.00" fill="#ffffff">MatMul (op#23)</text>
</a>
</g>
</g>
<!-- Reshape (op#22)&#45;&gt;MatMul (op#23) -->
<g id="edge22" class="edge">
<title>Reshape (op#22)&#45;&gt;MatMul (op#23)</title>
<path fill="none" stroke="black" d="M510.76,-1079.7C513.32,-1071.9 516.41,-1062.51 519.26,-1053.83"/>
<polygon fill="black" stroke="black" points="522.66,-1054.7 522.45,-1044.1 516.01,-1052.51 522.66,-1054.7"/>
</g>
<!-- Add (op#24) -->
<g id="node22" class="node">
<title>Add (op#24)</title>
<g id="a_node22"><a xlink:href="javascript:alert('Inputs:\n\tinput0 attention.output.dense.bias\n\tinput1 /attention/output/dense/MatMul_output_0\nOutputs: \n\toutput0 /attention/output/dense/Add_output_0')" xlink:title="Add (op#24)">
<polygon fill="#0f9d58" stroke="#0f9d58" points="589.57,-972 482.57,-972 482.57,-936 589.57,-936 589.57,-972"/>
<text text-anchor="middle" x="536.07" y="-950.3" font-family="Times,serif" font-size="14.00" fill="#ffffff">Add (op#24)</text>
</a>
</g>
</g>
<!-- MatMul (op#23)&#45;&gt;Add (op#24) -->
<g id="edge23" class="edge">
<title>MatMul (op#23)&#45;&gt;Add (op#24)</title>
<path fill="none" stroke="black" d="M530.05,-1007.7C530.93,-999.98 531.99,-990.71 532.98,-982.11"/>
<polygon fill="black" stroke="black" points="536.46,-982.44 534.12,-972.1 529.51,-981.64 536.46,-982.44"/>
</g>
<!-- Add (op#24)&#45;&gt;Add (op#25) -->
<g id="edge24" class="edge">
<title>Add (op#24)&#45;&gt;Add (op#25)</title>
<path fill="none" stroke="black" d="M546.21,-935.7C550.93,-927.64 556.64,-917.89 561.86,-908.98"/>
<polygon fill="black" stroke="black" points="565.02,-910.5 567.06,-900.1 558.98,-906.96 565.02,-910.5"/>
</g>
<!-- MatMul (op#27) -->
<g id="node24" class="node">
<title>MatMul (op#27)</title>
<g id="a_node24"><a xlink:href="javascript:alert('Inputs:\n\tinput0 /attention/output/LayerNorm/LayerNormalization_output_0\n\tinput1 onnx::MatMul_129\nOutputs: \n\toutput0 /intermediate/dense/MatMul_output_0')" xlink:title="MatMul (op#27)">
<polygon fill="#0f9d58" stroke="#0f9d58" points="596.57,-756 461.57,-756 461.57,-720 596.57,-720 596.57,-756"/>
<text text-anchor="middle" x="529.07" y="-734.3" font-family="Times,serif" font-size="14.00" fill="#ffffff">MatMul (op#27)</text>
</a>
</g>
</g>
<!-- LayerNormalization (op#26)&#45;&gt;MatMul (op#27) -->
<g id="edge26" class="edge">
<title>LayerNormalization (op#26)&#45;&gt;MatMul (op#27)</title>
<path fill="none" stroke="black" d="M565.21,-791.7C559.57,-783.47 552.72,-773.48 546.51,-764.42"/>
<polygon fill="black" stroke="black" points="549.34,-762.37 540.8,-756.1 543.57,-766.33 549.34,-762.37"/>
</g>
<!-- Add (op#39) -->
<g id="node25" class="node">
<title>Add (op#39)</title>
<g id="a_node25"><a xlink:href="javascript:alert('Inputs:\n\tinput0 /output/dense/Add_output_0\n\tinput1 /attention/output/LayerNorm/LayerNormalization_output_0\nOutputs: \n\toutput0 /output/Add_output_0')" xlink:title="Add (op#39)">
<polygon fill="#0f9d58" stroke="#0f9d58" points="630.57,-108 523.57,-108 523.57,-72 630.57,-72 630.57,-108"/>
<text text-anchor="middle" x="577.07" y="-86.3" font-family="Times,serif" font-size="14.00" fill="#ffffff">Add (op#39)</text>
</a>
</g>
</g>
<!-- LayerNormalization (op#26)&#45;&gt;Add (op#39) -->
<g id="edge27" class="edge">
<title>LayerNormalization (op#26)&#45;&gt;Add (op#39)</title>
<path fill="none" stroke="black" d="M588.07,-791.94C594.15,-781.84 601.4,-768.59 606.07,-756 620.15,-718.08 625.07,-707.45 625.07,-667 625.07,-667 625.07,-667 625.07,-233 625.07,-190.87 605.87,-145.23 591.76,-117.37"/>
<polygon fill="black" stroke="black" points="594.75,-115.54 587.02,-108.29 588.55,-118.78 594.75,-115.54"/>
</g>
<!-- Add (op#28) -->
<g id="node26" class="node">
<title>Add (op#28)</title>
<g id="a_node26"><a xlink:href="javascript:alert('Inputs:\n\tinput0 intermediate.dense.bias\n\tinput1 /intermediate/dense/MatMul_output_0\nOutputs: \n\toutput0 /intermediate/dense/Add_output_0')" xlink:title="Add (op#28)">
<polygon fill="#0f9d58" stroke="#0f9d58" points="582.57,-684 475.57,-684 475.57,-648 582.57,-648 582.57,-684"/>
<text text-anchor="middle" x="529.07" y="-662.3" font-family="Times,serif" font-size="14.00" fill="#ffffff">Add (op#28)</text>
</a>
</g>
</g>
<!-- MatMul (op#27)&#45;&gt;Add (op#28) -->
<g id="edge28" class="edge">
<title>MatMul (op#27)&#45;&gt;Add (op#28)</title>
<path fill="none" stroke="black" d="M529.07,-719.7C529.07,-711.98 529.07,-702.71 529.07,-694.11"/>
<polygon fill="black" stroke="black" points="532.57,-694.1 529.07,-684.1 525.57,-694.1 532.57,-694.1"/>
</g>
<!-- LayerNormalization (op#40) -->
<g id="node34" class="node">
<title>LayerNormalization (op#40)</title>
<g id="a_node34"><a xlink:href="javascript:alert('Inputs:\n\tinput0 /output/Add_output_0\n\tinput1 output.LayerNorm.weight\n\tinput2 output.LayerNorm.bias\nOutputs: \n\toutput0 105')" xlink:title="LayerNormalization (op#40)">
<polygon fill="#0f9d58" stroke="#0f9d58" points="687.57,-36 466.57,-36 466.57,0 687.57,0 687.57,-36"/>
<text text-anchor="middle" x="577.07" y="-14.3" font-family="Times,serif" font-size="14.00" fill="#ffffff">LayerNormalization (op#40)</text>
</a>
</g>
</g>
<!-- Add (op#39)&#45;&gt;LayerNormalization (op#40) -->
<g id="edge38" class="edge">
<title>Add (op#39)&#45;&gt;LayerNormalization (op#40)</title>
<path fill="none" stroke="black" d="M577.07,-71.7C577.07,-63.98 577.07,-54.71 577.07,-46.11"/>
<polygon fill="black" stroke="black" points="580.57,-46.1 577.07,-36.1 573.57,-46.1 580.57,-46.1"/>
</g>
<!-- Div (op#30) -->
<g id="node27" class="node">
<title>Div (op#30)</title>
<g id="a_node27"><a xlink:href="javascript:alert('Inputs:\n\tinput0 /intermediate/dense/Add_output_0\n\tinput1 /intermediate/intermediate_act_fn/Constant_output_0\nOutputs: \n\toutput0 /intermediate/intermediate_act_fn/Div_output_0')" xlink:title="Div (op#30)">
<polygon fill="#0f9d58" stroke="#0f9d58" points="517.57,-612 414.57,-612 414.57,-576 517.57,-576 517.57,-612"/>
<text text-anchor="middle" x="466.07" y="-590.3" font-family="Times,serif" font-size="14.00" fill="#ffffff">Div (op#30)</text>
</a>
</g>
</g>
<!-- Add (op#28)&#45;&gt;Div (op#30) -->
<g id="edge29" class="edge">
<title>Add (op#28)&#45;&gt;Div (op#30)</title>
<path fill="none" stroke="black" d="M513.5,-647.7C505.87,-639.22 496.55,-628.86 488.2,-619.58"/>
<polygon fill="black" stroke="black" points="490.76,-617.2 481.47,-612.1 485.56,-621.88 490.76,-617.2"/>
</g>
<!-- Mul (op#34) -->
<g id="node28" class="node">
<title>Mul (op#34)</title>
<g id="a_node28"><a xlink:href="javascript:alert('Inputs:\n\tinput0 /intermediate/dense/Add_output_0\n\tinput1 /intermediate/intermediate_act_fn/Add_output_0\nOutputs: \n\toutput0 /intermediate/intermediate_act_fn/Mul_output_0')" xlink:title="Mul (op#34)">
<polygon fill="#f0f0f0" stroke="#f0f0f0" points="596.57,-378 556.32,-396 475.82,-396 435.57,-378 475.82,-360 556.32,-360 596.57,-378"/>
<text text-anchor="middle" x="516.07" y="-374.3" font-family="Times,serif" font-size="14.00" fill="#000000">Mul (op#34)</text>
</a>
</g>
</g>
<!-- Add (op#28)&#45;&gt;Mul (op#34) -->
<g id="edge30" class="edge">
<title>Add (op#28)&#45;&gt;Mul (op#34)</title>
<path fill="none" stroke="black" d="M531.8,-647.59C536.07,-618.04 543.39,-556.19 539.07,-504 536.4,-471.67 533.04,-463.89 527.07,-432 525.5,-423.56 523.64,-414.39 521.91,-406.08"/>
<polygon fill="black" stroke="black" points="525.3,-405.21 519.81,-396.15 518.45,-406.66 525.3,-405.21"/>
</g>
<!-- Erf (op#31) -->
<g id="node29" class="node">
<title>Erf (op#31)</title>
<g id="a_node29"><a xlink:href="javascript:alert('Inputs:\n\tinput0 /intermediate/intermediate_act_fn/Div_output_0\nOutputs: \n\toutput0 /intermediate/intermediate_act_fn/Erf_output_0')" xlink:title="Erf (op#31)">
<polygon fill="#f0f0f0" stroke="#f0f0f0" points="530.07,-522 492.07,-540 416.07,-540 378.07,-522 416.07,-504 492.07,-504 530.07,-522"/>
<text text-anchor="middle" x="454.07" y="-518.3" font-family="Times,serif" font-size="14.00" fill="#000000">Erf (op#31)</text>
</a>
</g>
</g>
<!-- Div (op#30)&#45;&gt;Erf (op#31) -->
<g id="edge31" class="edge">
<title>Div (op#30)&#45;&gt;Erf (op#31)</title>
<path fill="none" stroke="black" d="M463.11,-575.7C461.79,-567.98 460.2,-558.71 458.72,-550.11"/>
<polygon fill="black" stroke="black" points="462.15,-549.37 457.01,-540.1 455.25,-550.55 462.15,-549.37"/>
</g>
<!-- Mul (op#36) -->
<g id="node31" class="node">
<title>Mul (op#36)</title>
<g id="a_node31"><a xlink:href="javascript:alert('Inputs:\n\tinput0 /intermediate/intermediate_act_fn/Mul_output_0\n\tinput1 /intermediate/intermediate_act_fn/Constant_2_output_0\nOutputs: \n\toutput0 /intermediate/intermediate_act_fn/Mul_1_output_0')" xlink:title="Mul (op#36)">
<polygon fill="#f0f0f0" stroke="#f0f0f0" points="596.57,-306 556.32,-324 475.82,-324 435.57,-306 475.82,-288 556.32,-288 596.57,-306"/>
<text text-anchor="middle" x="516.07" y="-302.3" font-family="Times,serif" font-size="14.00" fill="#000000">Mul (op#36)</text>
</a>
</g>
</g>
<!-- Mul (op#34)&#45;&gt;Mul (op#36) -->
<g id="edge34" class="edge">
<title>Mul (op#34)&#45;&gt;Mul (op#36)</title>
<path fill="none" stroke="black" d="M516.07,-359.7C516.07,-351.98 516.07,-342.71 516.07,-334.11"/>
<polygon fill="black" stroke="black" points="519.57,-334.1 516.07,-324.1 512.57,-334.1 519.57,-334.1"/>
</g>
<!-- Add (op#33) -->
<g id="node30" class="node">
<title>Add (op#33)</title>
<g id="a_node30"><a xlink:href="javascript:alert('Inputs:\n\tinput0 /intermediate/intermediate_act_fn/Erf_output_0\n\tinput1 /intermediate/intermediate_act_fn/Constant_1_output_0\nOutputs: \n\toutput0 /intermediate/intermediate_act_fn/Add_output_0')" xlink:title="Add (op#33)">
<polygon fill="#0f9d58" stroke="#0f9d58" points="518.57,-468 411.57,-468 411.57,-432 518.57,-432 518.57,-468"/>
<text text-anchor="middle" x="465.07" y="-446.3" font-family="Times,serif" font-size="14.00" fill="#ffffff">Add (op#33)</text>
</a>
</g>
</g>
<!-- Erf (op#31)&#45;&gt;Add (op#33) -->
<g id="edge32" class="edge">
<title>Erf (op#31)&#45;&gt;Add (op#33)</title>
<path fill="none" stroke="black" d="M456.79,-503.7C458.01,-495.98 459.46,-486.71 460.81,-478.11"/>
<polygon fill="black" stroke="black" points="464.29,-478.53 462.39,-468.1 457.38,-477.44 464.29,-478.53"/>
</g>
<!-- Add (op#33)&#45;&gt;Mul (op#34) -->
<g id="edge33" class="edge">
<title>Add (op#33)&#45;&gt;Mul (op#34)</title>
<path fill="none" stroke="black" d="M477.68,-431.7C483.67,-423.47 490.95,-413.48 497.55,-404.42"/>
<polygon fill="black" stroke="black" points="500.55,-406.25 503.61,-396.1 494.9,-402.13 500.55,-406.25"/>
</g>
<!-- MatMul (op#37) -->
<g id="node32" class="node">
<title>MatMul (op#37)</title>
<g id="a_node32"><a xlink:href="javascript:alert('Inputs:\n\tinput0 /intermediate/intermediate_act_fn/Mul_1_output_0\n\tinput1 onnx::MatMul_130\nOutputs: \n\toutput0 /output/dense/MatMul_output_0')" xlink:title="MatMul (op#37)">
<polygon fill="#0f9d58" stroke="#0f9d58" points="590.57,-252 455.57,-252 455.57,-216 590.57,-216 590.57,-252"/>
<text text-anchor="middle" x="523.07" y="-230.3" font-family="Times,serif" font-size="14.00" fill="#ffffff">MatMul (op#37)</text>
</a>
</g>
</g>
<!-- Mul (op#36)&#45;&gt;MatMul (op#37) -->
<g id="edge35" class="edge">
<title>Mul (op#36)&#45;&gt;MatMul (op#37)</title>
<path fill="none" stroke="black" d="M517.8,-287.7C518.58,-279.98 519.5,-270.71 520.36,-262.11"/>
<polygon fill="black" stroke="black" points="523.85,-262.4 521.36,-252.1 516.89,-261.71 523.85,-262.4"/>
</g>
<!-- Add (op#38) -->
<g id="node33" class="node">
<title>Add (op#38)</title>
<g id="a_node33"><a xlink:href="javascript:alert('Inputs:\n\tinput0 output.dense.bias\n\tinput1 /output/dense/MatMul_output_0\nOutputs: \n\toutput0 /output/dense/Add_output_0')" xlink:title="Add (op#38)">
<polygon fill="#0f9d58" stroke="#0f9d58" points="589.57,-180 482.57,-180 482.57,-144 589.57,-144 589.57,-180"/>
<text text-anchor="middle" x="536.07" y="-158.3" font-family="Times,serif" font-size="14.00" fill="#ffffff">Add (op#38)</text>
</a>
</g>
</g>
<!-- MatMul (op#37)&#45;&gt;Add (op#38) -->
<g id="edge36" class="edge">
<title>MatMul (op#37)&#45;&gt;Add (op#38)</title>
<path fill="none" stroke="black" d="M526.29,-215.7C527.72,-207.98 529.44,-198.71 531.04,-190.11"/>
<polygon fill="black" stroke="black" points="534.51,-190.58 532.9,-180.1 527.63,-189.3 534.51,-190.58"/>
</g>
<!-- Add (op#38)&#45;&gt;Add (op#39) -->
<g id="edge37" class="edge">
<title>Add (op#38)&#45;&gt;Add (op#39)</title>
<path fill="none" stroke="black" d="M546.21,-143.7C550.93,-135.64 556.64,-125.89 561.86,-116.98"/>
<polygon fill="black" stroke="black" points="565.02,-118.5 567.06,-108.1 558.98,-114.96 565.02,-118.5"/>
</g>
</g>
</svg>
